<svg width="745" height="503" viewBox="0 0 745 503" fill="none" xmlns="http://www.w3.org/2000/svg">
<rect width="745" height="503" fill="white"/>
<rect x="357" y="20" width="32" height="32" rx="16" fill="#469BFF"/>
<path d="M376.25 39.1562L377.156 39.4062L376.188 43.0312L375.281 42.7812L376.25 39.1562ZM371.75 38.8125V43.5H380.5V38.8125H371.75ZM370.812 37.875H381.438V44.4375H370.812V37.875ZM372.531 34.75C374.156 34.75 375.5 33.4062 375.5 31.7812C375.5 30.1562 374.156 28.8125 372.531 28.8125C370.906 28.8125 369.562 30.1562 369.562 31.7812C369.562 33.4062 370.906 34.75 372.531 34.75ZM377.656 36.9375H376.219C375.125 36.1562 373.812 35.6875 372.375 35.6875C368.75 35.6875 365.812 38.625 365.812 42.25H364.875C364.875 38.8125 367.188 35.9062 370.344 35.0312C369.312 34.3438 368.625 33.125 368.625 31.7812C368.625 29.625 370.375 27.875 372.531 27.875C374.688 27.875 376.438 29.625 376.438 31.7812C376.438 33.1875 375.719 34.4062 374.625 35.0938C375.781 35.4375 376.812 36.0938 377.656 36.9375ZM378.562 41.3125L377.688 40.4062L378.344 39.75L379.219 40.625L379.875 41.2812L378.344 42.8125L377.688 42.1875L378.562 41.3125ZM372.406 41.3125L373.938 39.75L374.594 40.4062L373.688 41.3125L374.594 42.2188L373.938 42.875L372.406 41.3125Z" fill="white"/>
<rect x="168" y="451" width="32" height="32" rx="16" fill="#FFB800"/>
<path d="M187.25 470.156L188.156 470.406L187.188 474.031L186.281 473.781L187.25 470.156ZM182.75 469.812V474.5H191.5V469.812H182.75ZM181.812 468.875H192.438V475.438H181.812V468.875ZM183.531 465.75C185.156 465.75 186.5 464.406 186.5 462.781C186.5 461.156 185.156 459.812 183.531 459.812C181.906 459.812 180.562 461.156 180.562 462.781C180.562 464.406 181.906 465.75 183.531 465.75ZM188.656 467.938H187.219C186.125 467.156 184.812 466.688 183.375 466.688C179.75 466.688 176.812 469.625 176.812 473.25H175.875C175.875 469.812 178.188 466.906 181.344 466.031C180.312 465.344 179.625 464.125 179.625 462.781C179.625 460.625 181.375 458.875 183.531 458.875C185.688 458.875 187.438 460.625 187.438 462.781C187.438 464.188 186.719 465.406 185.625 466.094C186.781 466.438 187.812 467.094 188.656 467.938ZM189.562 472.312L188.688 471.406L189.344 470.75L190.219 471.625L190.875 472.281L189.344 473.812L188.688 473.188L189.562 472.312ZM183.406 472.312L184.938 470.75L185.594 471.406L184.688 472.312L185.594 473.219L184.938 473.875L183.406 472.312Z" fill="white"/>
<rect x="548" y="451" width="32" height="32" rx="16" fill="#8371F3"/>
<path d="M567.25 470.156L568.156 470.406L567.188 474.031L566.281 473.781L567.25 470.156ZM562.75 469.812V474.5H571.5V469.812H562.75ZM561.812 468.875H572.438V475.438H561.812V468.875ZM563.531 465.75C565.156 465.75 566.5 464.406 566.5 462.781C566.5 461.156 565.156 459.812 563.531 459.812C561.906 459.812 560.562 461.156 560.562 462.781C560.562 464.406 561.906 465.75 563.531 465.75ZM568.656 467.938H567.219C566.125 467.156 564.812 466.688 563.375 466.688C559.75 466.688 556.812 469.625 556.812 473.25H555.875C555.875 469.812 558.188 466.906 561.344 466.031C560.312 465.344 559.625 464.125 559.625 462.781C559.625 460.625 561.375 458.875 563.531 458.875C565.688 458.875 567.438 460.625 567.438 462.781C567.438 464.188 566.719 465.406 565.625 466.094C566.781 466.438 567.812 467.094 568.656 467.938ZM569.562 472.312L568.688 471.406L569.344 470.75L570.219 471.625L570.875 472.281L569.344 473.812L568.688 473.188L569.562 472.312ZM563.406 472.312L564.938 470.75L565.594 471.406L564.688 472.312L565.594 473.219L564.938 473.875L563.406 472.312Z" fill="white"/>
<path opacity="0.6" d="M354 278.5C358.142 278.5 361.5 281.858 361.5 286V402C361.5 406.142 358.142 409.5 354 409.5H28C23.8579 409.5 20.5 406.142 20.5 402V286C20.5 281.858 23.8579 278.5 28 278.5H354Z" stroke="#FFB800"/>
<rect x="351" y="286" width="116" height="320" rx="6" transform="rotate(90 351 286)" fill="#FFF9EB"/>
<path d="M63.2282 349H61.1002L60.3162 346.952H55.4202L54.6362 349H52.5082L56.7002 338.328H59.0362L63.2282 349ZM59.7882 345.304L57.8682 340.216L55.9482 345.304H59.7882ZM71.4658 349H69.7858V347.944C69.1938 348.712 68.2978 349.192 67.3058 349.192C65.3218 349.192 63.8658 347.688 63.8658 345.144C63.8658 342.648 65.3058 341.08 67.3058 341.08C68.2658 341.08 69.1618 341.528 69.7858 342.344V338.328H71.4658V349ZM67.7858 347.704C68.5858 347.704 69.4018 347.256 69.7858 346.68V343.608C69.4018 343.032 68.5858 342.568 67.7858 342.568C66.4578 342.568 65.6098 343.64 65.6098 345.144C65.6098 346.632 66.4578 347.704 67.7858 347.704ZM80.7627 349H79.0827V347.944C78.4907 348.712 77.5947 349.192 76.6027 349.192C74.6187 349.192 73.1627 347.688 73.1627 345.144C73.1627 342.648 74.6027 341.08 76.6027 341.08C77.5627 341.08 78.4587 341.528 79.0827 342.344V338.328H80.7627V349ZM77.0827 347.704C77.8827 347.704 78.6987 347.256 79.0827 346.68V343.608C78.6987 343.032 77.8827 342.568 77.0827 342.568C75.7547 342.568 74.9067 343.64 74.9067 345.144C74.9067 346.632 75.7547 347.704 77.0827 347.704ZM93.9449 349H92.2649V344.168C92.2649 342.968 91.6569 342.568 90.7129 342.568C89.8489 342.568 89.1129 343.08 88.7289 343.608V349H87.0489V341.272H88.7289V342.328C89.2409 341.72 90.2329 341.08 91.4489 341.08C93.1129 341.08 93.9449 341.976 93.9449 343.56V349ZM99.6951 349.192C97.3751 349.192 95.6471 347.576 95.6471 345.128C95.6471 342.888 97.2791 341.08 99.5671 341.08C101.887 341.08 103.375 342.856 103.375 345.288V345.688H97.4071C97.5351 346.856 98.4151 347.816 99.8711 347.816C100.623 347.816 101.519 347.512 102.063 346.968L102.831 348.072C102.063 348.808 100.927 349.192 99.6951 349.192ZM101.743 344.504C101.711 343.592 101.087 342.456 99.5671 342.456C98.1271 342.456 97.4711 343.56 97.3911 344.504H101.743ZM113.529 349H111.769L109.977 343.336L108.185 349H106.425L104.025 341.272H105.769L107.401 346.888L109.241 341.272H110.713L112.553 346.888L114.185 341.272H115.929L113.529 349ZM123.285 349H121.605V342.744H120.325V341.272H121.605V340.84C121.605 339.112 122.629 338.168 124.053 338.168C124.581 338.168 125.061 338.28 125.397 338.472L125.029 339.72C124.869 339.608 124.645 339.544 124.357 339.544C123.701 339.544 123.285 339.976 123.285 340.84V341.272H124.853V342.744H123.285V349ZM126.965 340.328C126.405 340.328 125.925 339.864 125.925 339.288C125.925 338.712 126.405 338.248 126.965 338.248C127.541 338.248 128.005 338.712 128.005 339.288C128.005 339.864 127.541 340.328 126.965 340.328ZM127.813 349H126.133V341.272H127.813V349ZM133.554 349.192C131.234 349.192 129.506 347.576 129.506 345.128C129.506 342.888 131.138 341.08 133.426 341.08C135.746 341.08 137.234 342.856 137.234 345.288V345.688H131.266C131.394 346.856 132.274 347.816 133.73 347.816C134.482 347.816 135.378 347.512 135.922 346.968L136.69 348.072C135.922 348.808 134.786 349.192 133.554 349.192ZM135.602 344.504C135.57 343.592 134.946 342.456 133.426 342.456C131.986 342.456 131.33 343.56 131.25 344.504H135.602ZM140.573 349H138.893V338.328H140.573V349ZM149.872 349H148.192V347.944C147.6 348.712 146.704 349.192 145.712 349.192C143.728 349.192 142.272 347.688 142.272 345.144C142.272 342.648 143.712 341.08 145.712 341.08C146.672 341.08 147.568 341.528 148.192 342.344V338.328H149.872V349ZM146.192 347.704C146.992 347.704 147.808 347.256 148.192 346.68V343.608C147.808 343.032 146.992 342.568 146.192 342.568C144.864 342.568 144.016 343.64 144.016 345.144C144.016 346.632 144.864 347.704 146.192 347.704ZM154.689 349.192C153.377 349.192 152.177 348.776 151.377 347.992L152.145 346.776C152.689 347.336 153.761 347.864 154.769 347.864C155.777 347.864 156.289 347.432 156.289 346.824C156.289 345.304 151.617 346.392 151.617 343.432C151.617 342.168 152.705 341.08 154.657 341.08C155.969 341.08 156.961 341.544 157.665 342.168L156.961 343.352C156.497 342.824 155.633 342.424 154.673 342.424C153.793 342.424 153.233 342.824 153.233 343.368C153.233 344.744 157.905 343.72 157.905 346.792C157.905 348.152 156.769 349.192 154.689 349.192ZM166.025 349.192C164.729 349.192 164.041 348.488 164.041 347.208V342.744H162.761V341.272H164.041V339.16H165.721V341.272H167.289V342.744H165.721V346.792C165.721 347.32 165.977 347.704 166.457 347.704C166.777 347.704 167.081 347.576 167.209 347.432L167.609 348.696C167.305 348.984 166.809 349.192 166.025 349.192ZM172.303 349.192C169.855 349.192 168.335 347.352 168.335 345.128C168.335 342.92 169.855 341.08 172.303 341.08C174.783 341.08 176.287 342.92 176.287 345.128C176.287 347.352 174.783 349.192 172.303 349.192ZM172.303 347.704C173.743 347.704 174.543 346.504 174.543 345.128C174.543 343.768 173.743 342.568 172.303 342.568C170.879 342.568 170.079 343.768 170.079 345.128C170.079 346.504 170.879 347.704 172.303 347.704ZM188.992 349H187.312V347.976C186.752 348.6 185.792 349.192 184.576 349.192C182.912 349.192 182.096 348.328 182.096 346.744V341.272H183.776V346.136C183.776 347.336 184.384 347.704 185.328 347.704C186.176 347.704 186.912 347.224 187.312 346.696V341.272H188.992V349ZM195.334 349.192C194.358 349.192 193.478 348.76 192.854 347.928V351.944H191.174V341.272H192.854V342.328C193.43 341.56 194.326 341.08 195.334 341.08C197.334 341.08 198.758 342.584 198.758 345.128C198.758 347.672 197.334 349.192 195.334 349.192ZM194.838 347.704C196.166 347.704 197.014 346.632 197.014 345.128C197.014 343.64 196.166 342.568 194.838 342.568C194.054 342.568 193.222 343.032 192.854 343.608V346.664C193.222 347.224 194.054 347.704 194.838 347.704ZM207.544 349H205.864V347.944C205.272 348.712 204.376 349.192 203.384 349.192C201.4 349.192 199.944 347.688 199.944 345.144C199.944 342.648 201.384 341.08 203.384 341.08C204.344 341.08 205.24 341.528 205.864 342.344V338.328H207.544V349ZM203.864 347.704C204.664 347.704 205.48 347.256 205.864 346.68V343.608C205.48 343.032 204.664 342.568 203.864 342.568C202.536 342.568 201.688 343.64 201.688 345.144C201.688 346.632 202.536 347.704 203.864 347.704ZM216.121 349H214.441V348.168C213.865 348.824 212.969 349.192 211.945 349.192C210.681 349.192 209.257 348.344 209.257 346.632C209.257 344.856 210.681 344.12 211.945 344.12C212.985 344.12 213.881 344.456 214.441 345.112V343.96C214.441 343.064 213.705 342.52 212.633 342.52C211.769 342.52 211.017 342.84 210.345 343.496L209.657 342.328C210.553 341.48 211.673 341.08 212.905 341.08C214.617 341.08 216.121 341.8 216.121 343.88V349ZM212.601 348.04C213.337 348.04 214.057 347.768 214.441 347.24V346.072C214.057 345.544 213.337 345.272 212.601 345.272C211.657 345.272 210.953 345.816 210.953 346.664C210.953 347.496 211.657 348.04 212.601 348.04ZM220.619 349.192C219.323 349.192 218.635 348.488 218.635 347.208V342.744H217.355V341.272H218.635V339.16H220.315V341.272H221.883V342.744H220.315V346.792C220.315 347.32 220.571 347.704 221.051 347.704C221.371 347.704 221.675 347.576 221.803 347.432L222.203 348.696C221.899 348.984 221.403 349.192 220.619 349.192ZM226.976 349.192C224.656 349.192 222.928 347.576 222.928 345.128C222.928 342.888 224.56 341.08 226.848 341.08C229.168 341.08 230.656 342.856 230.656 345.288V345.688H224.688C224.816 346.856 225.696 347.816 227.152 347.816C227.904 347.816 228.8 347.512 229.344 346.968L230.112 348.072C229.344 348.808 228.208 349.192 226.976 349.192ZM229.024 344.504C228.992 343.592 228.368 342.456 226.848 342.456C225.408 342.456 224.752 343.56 224.672 344.504H229.024ZM238.744 349.192C237.448 349.192 236.76 348.488 236.76 347.208V342.744H235.48V341.272H236.76V339.16H238.44V341.272H240.008V342.744H238.44V346.792C238.44 347.32 238.696 347.704 239.176 347.704C239.496 347.704 239.8 347.576 239.928 347.432L240.328 348.696C240.024 348.984 239.528 349.192 238.744 349.192ZM248.445 349H246.765V344.136C246.765 342.936 246.141 342.568 245.197 342.568C244.349 342.568 243.613 343.08 243.213 343.608V349H241.533V338.328H243.213V342.328C243.725 341.72 244.733 341.08 245.949 341.08C247.613 341.08 248.445 341.944 248.445 343.528V349ZM254.195 349.192C251.875 349.192 250.147 347.576 250.147 345.128C250.147 342.888 251.779 341.08 254.067 341.08C256.387 341.08 257.875 342.856 257.875 345.288V345.688H251.907C252.035 346.856 252.915 347.816 254.371 347.816C255.123 347.816 256.019 347.512 256.563 346.968L257.331 348.072C256.563 348.808 255.427 349.192 254.195 349.192ZM256.243 344.504C256.211 343.592 255.587 342.456 254.067 342.456C252.627 342.456 251.971 343.56 251.891 344.504H256.243ZM265.323 349H263.643V341.272H265.323V342.408C265.899 341.672 266.827 341.096 267.835 341.096V342.76C267.691 342.728 267.515 342.712 267.307 342.712C266.603 342.712 265.659 343.192 265.323 343.736V349ZM272.758 349.192C270.438 349.192 268.71 347.576 268.71 345.128C268.71 342.888 270.342 341.08 272.63 341.08C274.95 341.08 276.438 342.856 276.438 345.288V345.688H270.47C270.598 346.856 271.478 347.816 272.934 347.816C273.686 347.816 274.582 347.512 275.126 346.968L275.894 348.072C275.126 348.808 273.99 349.192 272.758 349.192ZM274.806 344.504C274.774 343.592 274.15 342.456 272.63 342.456C271.19 342.456 270.534 343.56 270.454 344.504H274.806ZM280.736 349.192C279.424 349.192 278.224 348.776 277.424 347.992L278.192 346.776C278.736 347.336 279.808 347.864 280.816 347.864C281.824 347.864 282.336 347.432 282.336 346.824C282.336 345.304 277.664 346.392 277.664 343.432C277.664 342.168 278.752 341.08 280.704 341.08C282.016 341.08 283.008 341.544 283.712 342.168L283.008 343.352C282.544 342.824 281.68 342.424 280.72 342.424C279.84 342.424 279.28 342.824 279.28 343.368C279.28 344.744 283.952 343.72 283.952 346.792C283.952 348.152 282.816 349.192 280.736 349.192ZM289.803 349.192C288.827 349.192 287.947 348.76 287.323 347.928V351.944H285.643V341.272H287.323V342.328C287.899 341.56 288.795 341.08 289.803 341.08C291.803 341.08 293.227 342.584 293.227 345.128C293.227 347.672 291.803 349.192 289.803 349.192ZM289.307 347.704C290.635 347.704 291.483 346.632 291.483 345.128C291.483 343.64 290.635 342.568 289.307 342.568C288.523 342.568 287.691 343.032 287.323 343.608V346.664C287.691 347.224 288.523 347.704 289.307 347.704ZM298.381 349.192C295.933 349.192 294.413 347.352 294.413 345.128C294.413 342.92 295.933 341.08 298.381 341.08C300.861 341.08 302.365 342.92 302.365 345.128C302.365 347.352 300.861 349.192 298.381 349.192ZM298.381 347.704C299.821 347.704 300.621 346.504 300.621 345.128C300.621 343.768 299.821 342.568 298.381 342.568C296.957 342.568 296.157 343.768 296.157 345.128C296.157 346.504 296.957 347.704 298.381 347.704ZM310.961 349H309.281V344.168C309.281 342.968 308.673 342.568 307.729 342.568C306.865 342.568 306.129 343.08 305.745 343.608V349H304.065V341.272H305.745V342.328C306.257 341.72 307.249 341.08 308.465 341.08C310.129 341.08 310.961 341.976 310.961 343.56V349ZM315.783 349.192C314.471 349.192 313.271 348.776 312.471 347.992L313.239 346.776C313.783 347.336 314.855 347.864 315.863 347.864C316.871 347.864 317.383 347.432 317.383 346.824C317.383 345.304 312.711 346.392 312.711 343.432C312.711 342.168 313.799 341.08 315.751 341.08C317.063 341.08 318.055 341.544 318.759 342.168L318.055 343.352C317.591 342.824 316.727 342.424 315.767 342.424C314.887 342.424 314.327 342.824 314.327 343.368C314.327 344.744 318.999 343.72 318.999 346.792C318.999 348.152 317.863 349.192 315.783 349.192ZM324.258 349.192C321.938 349.192 320.21 347.576 320.21 345.128C320.21 342.888 321.842 341.08 324.13 341.08C326.45 341.08 327.938 342.856 327.938 345.288V345.688H321.97C322.098 346.856 322.978 347.816 324.434 347.816C325.186 347.816 326.082 347.512 326.626 346.968L327.394 348.072C326.626 348.808 325.49 349.192 324.258 349.192ZM326.306 344.504C326.274 343.592 325.65 342.456 324.13 342.456C322.69 342.456 322.034 343.56 321.954 344.504H326.306Z" fill="black"/>
<path opacity="0.6" d="M717 278.5C721.142 278.5 724.5 281.858 724.5 286V402C724.5 406.142 721.142 409.5 717 409.5H391C386.858 409.5 383.5 406.142 383.5 402V286C383.5 281.858 386.858 278.5 391 278.5H717Z" stroke="#8371F3"/>
<rect x="714" y="286" width="116" height="320" rx="6" transform="rotate(90 714 286)" fill="#F5F4FE"/>
<path d="M445.102 317H443.23V306.328H445.102V317ZM458.474 317H456.794V311.96C456.794 311.128 456.426 310.568 455.53 310.568C454.778 310.568 454.074 311.096 453.738 311.592V317H452.058V311.96C452.058 311.128 451.69 310.568 450.778 310.568C450.042 310.568 449.354 311.096 449.002 311.608V317H447.322V309.272H449.002V310.328C449.322 309.848 450.346 309.08 451.514 309.08C452.666 309.08 453.37 309.656 453.626 310.504C454.074 309.8 455.098 309.08 456.25 309.08C457.674 309.08 458.474 309.848 458.474 311.416V317ZM464.811 317.192C463.835 317.192 462.955 316.76 462.331 315.928V319.944H460.651V309.272H462.331V310.328C462.907 309.56 463.803 309.08 464.811 309.08C466.811 309.08 468.235 310.584 468.235 313.128C468.235 315.672 466.811 317.192 464.811 317.192ZM464.315 315.704C465.643 315.704 466.491 314.632 466.491 313.128C466.491 311.64 465.643 310.568 464.315 310.568C463.531 310.568 462.699 311.032 462.331 311.608V314.664C462.699 315.224 463.531 315.704 464.315 315.704ZM471.581 317H469.901V306.328H471.581V317ZM477.328 317.192C475.008 317.192 473.28 315.576 473.28 313.128C473.28 310.888 474.912 309.08 477.2 309.08C479.52 309.08 481.008 310.856 481.008 313.288V313.688H475.04C475.168 314.856 476.048 315.816 477.504 315.816C478.256 315.816 479.152 315.512 479.696 314.968L480.464 316.072C479.696 316.808 478.56 317.192 477.328 317.192ZM479.376 312.504C479.344 311.592 478.72 310.456 477.2 310.456C475.76 310.456 475.104 311.56 475.024 312.504H479.376ZM493.818 317H492.138V311.96C492.138 311.128 491.77 310.568 490.874 310.568C490.122 310.568 489.418 311.096 489.082 311.592V317H487.402V311.96C487.402 311.128 487.034 310.568 486.122 310.568C485.386 310.568 484.698 311.096 484.346 311.608V317H482.666V309.272H484.346V310.328C484.666 309.848 485.69 309.08 486.858 309.08C488.01 309.08 488.714 309.656 488.97 310.504C489.418 309.8 490.442 309.08 491.594 309.08C493.018 309.08 493.818 309.848 493.818 311.416V317ZM499.562 317.192C497.242 317.192 495.514 315.576 495.514 313.128C495.514 310.888 497.146 309.08 499.434 309.08C501.754 309.08 503.242 310.856 503.242 313.288V313.688H497.274C497.402 314.856 498.282 315.816 499.738 315.816C500.49 315.816 501.386 315.512 501.93 314.968L502.698 316.072C501.93 316.808 500.794 317.192 499.562 317.192ZM501.61 312.504C501.578 311.592 500.954 310.456 499.434 310.456C497.994 310.456 497.338 311.56 497.258 312.504H501.61ZM511.797 317H510.117V312.168C510.117 310.968 509.509 310.568 508.565 310.568C507.701 310.568 506.965 311.08 506.581 311.608V317H504.901V309.272H506.581V310.328C507.093 309.72 508.085 309.08 509.301 309.08C510.965 309.08 511.797 309.976 511.797 311.56V317ZM516.299 317.192C515.003 317.192 514.315 316.488 514.315 315.208V310.744H513.035V309.272H514.315V307.16H515.995V309.272H517.563V310.744H515.995V314.792C515.995 315.32 516.251 315.704 516.731 315.704C517.051 315.704 517.355 315.576 517.483 315.432L517.883 316.696C517.579 316.984 517.083 317.192 516.299 317.192ZM530.093 317H528.413V312.168C528.413 310.968 527.805 310.568 526.861 310.568C525.997 310.568 525.261 311.08 524.877 311.608V317H523.197V309.272H524.877V310.328C525.389 309.72 526.381 309.08 527.597 309.08C529.261 309.08 530.093 309.976 530.093 311.56V317ZM535.844 317.192C533.524 317.192 531.796 315.576 531.796 313.128C531.796 310.888 533.428 309.08 535.716 309.08C538.036 309.08 539.524 310.856 539.524 313.288V313.688H533.556C533.684 314.856 534.564 315.816 536.02 315.816C536.772 315.816 537.668 315.512 538.212 314.968L538.98 316.072C538.212 316.808 537.076 317.192 535.844 317.192ZM537.892 312.504C537.86 311.592 537.236 310.456 535.716 310.456C534.276 310.456 533.62 311.56 533.539 312.504H537.892ZM549.678 317H547.918L546.126 311.336L544.334 317H542.574L540.174 309.272H541.918L543.55 314.888L545.39 309.272H546.862L548.702 314.888L550.334 309.272H552.078L549.678 317ZM559.434 317H557.754V310.744H556.474V309.272H557.754V308.84C557.754 307.16 558.73 306.168 560.202 306.168C560.89 306.168 561.578 306.344 562.058 306.84L561.402 307.88C561.178 307.672 560.89 307.544 560.506 307.544C559.85 307.544 559.434 307.976 559.434 308.84V309.272H561.002V310.744H559.434V317ZM565.844 317.192C563.524 317.192 561.796 315.576 561.796 313.128C561.796 310.888 563.428 309.08 565.716 309.08C568.036 309.08 569.524 310.856 569.524 313.288V313.688H563.556C563.684 314.856 564.564 315.816 566.02 315.816C566.772 315.816 567.668 315.512 568.212 314.968L568.98 316.072C568.212 316.808 567.076 317.192 565.844 317.192ZM567.892 312.504C567.86 311.592 567.236 310.456 565.716 310.456C564.276 310.456 563.62 311.56 563.539 312.504H567.892ZM577.582 317H575.902V316.168C575.326 316.824 574.43 317.192 573.406 317.192C572.142 317.192 570.718 316.344 570.718 314.632C570.718 312.856 572.142 312.12 573.406 312.12C574.446 312.12 575.342 312.456 575.902 313.112V311.96C575.902 311.064 575.166 310.52 574.094 310.52C573.23 310.52 572.478 310.84 571.806 311.496L571.118 310.328C572.014 309.48 573.134 309.08 574.366 309.08C576.078 309.08 577.582 309.8 577.582 311.88V317ZM574.062 316.04C574.798 316.04 575.518 315.768 575.902 315.24V314.072C575.518 313.544 574.798 313.272 574.062 313.272C573.118 313.272 572.414 313.816 572.414 314.664C572.414 315.496 573.118 316.04 574.062 316.04ZM582.08 317.192C580.784 317.192 580.096 316.488 580.096 315.208V310.744H578.816V309.272H580.096V307.16H581.776V309.272H583.344V310.744H581.776V314.792C581.776 315.32 582.032 315.704 582.512 315.704C582.832 315.704 583.136 315.576 583.264 315.432L583.664 316.696C583.36 316.984 582.864 317.192 582.08 317.192ZM591.765 317H590.085V315.976C589.525 316.6 588.565 317.192 587.349 317.192C585.685 317.192 584.869 316.328 584.869 314.744V309.272H586.549V314.136C586.549 315.336 587.157 315.704 588.101 315.704C588.949 315.704 589.685 315.224 590.085 314.696V309.272H591.765V317ZM595.627 317H593.947V309.272H595.627V310.408C596.203 309.672 597.131 309.096 598.139 309.096V310.76C597.995 310.728 597.819 310.712 597.611 310.712C596.907 310.712 595.963 311.192 595.627 311.736V317ZM603.062 317.192C600.742 317.192 599.014 315.576 599.014 313.128C599.014 310.888 600.646 309.08 602.934 309.08C605.254 309.08 606.742 310.856 606.742 313.288V313.688H600.774C600.902 314.856 601.782 315.816 603.238 315.816C603.99 315.816 604.886 315.512 605.43 314.968L606.198 316.072C605.43 316.808 604.294 317.192 603.062 317.192ZM605.11 312.504C605.078 311.592 604.454 310.456 602.934 310.456C601.494 310.456 600.838 311.56 600.758 312.504H605.11ZM621.006 317H619.246L617.454 311.336L615.662 317H613.902L611.502 309.272H613.246L614.878 314.888L616.718 309.272H618.19L620.03 314.888L621.662 309.272H623.406L621.006 317ZM625.404 308.328C624.844 308.328 624.364 307.864 624.364 307.288C624.364 306.712 624.844 306.248 625.404 306.248C625.98 306.248 626.444 306.712 626.444 307.288C626.444 307.864 625.98 308.328 625.404 308.328ZM626.252 317H624.572V309.272H626.252V317ZM630.752 317.192C629.456 317.192 628.768 316.488 628.768 315.208V310.744H627.488V309.272H628.768V307.16H630.448V309.272H632.016V310.744H630.448V314.792C630.448 315.32 630.704 315.704 631.184 315.704C631.504 315.704 631.808 315.576 631.936 315.432L632.336 316.696C632.032 316.984 631.536 317.192 630.752 317.192ZM640.453 317H638.773V312.136C638.773 310.936 638.149 310.568 637.205 310.568C636.357 310.568 635.621 311.08 635.221 311.608V317H633.541V306.328H635.221V310.328C635.733 309.72 636.741 309.08 637.957 309.08C639.621 309.08 640.453 309.944 640.453 311.528V317ZM646.123 317.192C643.675 317.192 642.155 315.352 642.155 313.128C642.155 310.92 643.675 309.08 646.123 309.08C648.603 309.08 650.107 310.92 650.107 313.128C650.107 315.352 648.603 317.192 646.123 317.192ZM646.123 315.704C647.563 315.704 648.363 314.504 648.363 313.128C648.363 311.768 647.563 310.568 646.123 310.568C644.699 310.568 643.899 311.768 643.899 313.128C643.899 314.504 644.699 315.704 646.123 315.704ZM658.703 317H657.023V315.976C656.463 316.6 655.503 317.192 654.287 317.192C652.623 317.192 651.807 316.328 651.807 314.744V309.272H653.487V314.136C653.487 315.336 654.095 315.704 655.039 315.704C655.887 315.704 656.623 315.224 657.023 314.696V309.272H658.703V317ZM663.205 317.192C661.909 317.192 661.221 316.488 661.221 315.208V310.744H659.941V309.272H661.221V307.16H662.901V309.272H664.469V310.744H662.901V314.792C662.901 315.32 663.157 315.704 663.637 315.704C663.957 315.704 664.261 315.576 664.389 315.432L664.789 316.696C664.485 316.984 663.989 317.192 663.205 317.192ZM429.34 349H427.66V348.168C427.084 348.824 426.188 349.192 425.164 349.192C423.9 349.192 422.476 348.344 422.476 346.632C422.476 344.856 423.9 344.12 425.164 344.12C426.204 344.12 427.1 344.456 427.66 345.112V343.96C427.66 343.064 426.924 342.52 425.852 342.52C424.988 342.52 424.236 342.84 423.564 343.496L422.876 342.328C423.772 341.48 424.892 341.08 426.124 341.08C427.836 341.08 429.34 341.8 429.34 343.88V349ZM425.82 348.04C426.556 348.04 427.276 347.768 427.66 347.24V346.072C427.276 345.544 426.556 345.272 425.82 345.272C424.876 345.272 424.172 345.816 424.172 346.664C424.172 347.496 424.876 348.04 425.82 348.04ZM433.598 349H431.918V342.744H430.638V341.272H431.918V340.84C431.918 339.16 432.894 338.168 434.366 338.168C435.054 338.168 435.742 338.344 436.222 338.84L435.566 339.88C435.342 339.672 435.054 339.544 434.67 339.544C434.014 339.544 433.598 339.976 433.598 340.84V341.272H435.166V342.744H433.598V349ZM438.526 349H436.846V342.744H435.566V341.272H436.846V340.84C436.846 339.16 437.822 338.168 439.294 338.168C439.982 338.168 440.67 338.344 441.15 338.84L440.494 339.88C440.27 339.672 439.982 339.544 439.598 339.544C438.942 339.544 438.526 339.976 438.526 340.84V341.272H440.094V342.744H438.526V349ZM444.961 349.192C442.641 349.192 440.913 347.576 440.913 345.128C440.913 342.888 442.545 341.08 444.833 341.08C447.153 341.08 448.641 342.856 448.641 345.288V345.688H442.673C442.801 346.856 443.681 347.816 445.137 347.816C445.889 347.816 446.785 347.512 447.329 346.968L448.097 348.072C447.329 348.808 446.193 349.192 444.961 349.192ZM447.009 344.504C446.977 343.592 446.353 342.456 444.833 342.456C443.393 342.456 442.737 343.56 442.657 344.504H447.009ZM453.819 349.192C451.467 349.192 449.819 347.48 449.819 345.128C449.819 342.792 451.467 341.08 453.819 341.08C455.323 341.08 456.235 341.72 456.779 342.456L455.675 343.48C455.243 342.872 454.651 342.568 453.899 342.568C452.491 342.568 451.563 343.624 451.563 345.128C451.563 346.632 452.491 347.704 453.899 347.704C454.651 347.704 455.243 347.384 455.675 346.792L456.779 347.816C456.235 348.552 455.323 349.192 453.819 349.192ZM460.572 349.192C459.276 349.192 458.588 348.488 458.588 347.208V342.744H457.308V341.272H458.588V339.16H460.268V341.272H461.836V342.744H460.268V346.792C460.268 347.32 460.524 347.704 461.004 347.704C461.324 347.704 461.628 347.576 461.756 347.432L462.156 348.696C461.852 348.984 461.356 349.192 460.572 349.192ZM464.193 340.328C463.633 340.328 463.153 339.864 463.153 339.288C463.153 338.712 463.633 338.248 464.193 338.248C464.769 338.248 465.233 338.712 465.233 339.288C465.233 339.864 464.769 340.328 464.193 340.328ZM465.041 349H463.361V341.272H465.041V349ZM474.117 349H472.437V344.168C472.437 342.968 471.829 342.568 470.885 342.568C470.021 342.568 469.285 343.08 468.901 343.608V349H467.221V341.272H468.901V342.328C469.413 341.72 470.405 341.08 471.621 341.08C473.285 341.08 474.117 341.976 474.117 343.56V349ZM479.435 352.136C478.123 352.136 477.147 351.848 476.203 350.984L476.987 349.768C477.611 350.488 478.411 350.76 479.435 350.76C480.539 350.76 481.723 350.248 481.723 348.664V347.736C481.131 348.504 480.251 349.016 479.243 349.016C477.275 349.016 475.819 347.592 475.819 345.048C475.819 342.552 477.259 341.08 479.243 341.08C480.219 341.08 481.099 341.528 481.723 342.344V341.272H483.403V348.6C483.403 351.384 481.339 352.136 479.435 352.136ZM479.739 347.528C480.523 347.528 481.355 347.064 481.723 346.488V343.608C481.355 343.032 480.523 342.568 479.739 342.568C478.411 342.568 477.563 343.56 477.563 345.048C477.563 346.536 478.411 347.528 479.739 347.528ZM493.258 349.192C490.938 349.192 489.21 347.576 489.21 345.128C489.21 342.888 490.842 341.08 493.13 341.08C495.45 341.08 496.938 342.856 496.938 345.288V345.688H490.97C491.098 346.856 491.978 347.816 493.434 347.816C494.186 347.816 495.082 347.512 495.626 346.968L496.394 348.072C495.626 348.808 494.49 349.192 493.258 349.192ZM495.306 344.504C495.274 343.592 494.65 342.456 493.13 342.456C491.69 342.456 491.034 343.56 490.954 344.504H495.306ZM505.364 349H503.476L501.476 346.152L499.46 349H497.588L500.42 345.032L497.748 341.272H499.636L501.476 343.896L503.3 341.272H505.188L502.516 345.032L505.364 349ZM507.365 340.328C506.805 340.328 506.325 339.864 506.325 339.288C506.325 338.712 506.805 338.248 507.365 338.248C507.941 338.248 508.405 338.712 508.405 339.288C508.405 339.864 507.941 340.328 507.365 340.328ZM508.213 349H506.533V341.272H508.213V349ZM513.033 349.192C511.721 349.192 510.521 348.776 509.721 347.992L510.489 346.776C511.033 347.336 512.105 347.864 513.113 347.864C514.121 347.864 514.633 347.432 514.633 346.824C514.633 345.304 509.961 346.392 509.961 343.432C509.961 342.168 511.049 341.08 513.001 341.08C514.313 341.08 515.305 341.544 516.009 342.168L515.305 343.352C514.841 342.824 513.977 342.424 513.017 342.424C512.137 342.424 511.577 342.824 511.577 343.368C511.577 344.744 516.249 343.72 516.249 346.792C516.249 348.152 515.113 349.192 513.033 349.192ZM520.26 349.192C518.964 349.192 518.276 348.488 518.276 347.208V342.744H516.996V341.272H518.276V339.16H519.956V341.272H521.524V342.744H519.956V346.792C519.956 347.32 520.212 347.704 520.692 347.704C521.012 347.704 521.316 347.576 521.444 347.432L521.844 348.696C521.54 348.984 521.044 349.192 520.26 349.192ZM523.881 340.328C523.321 340.328 522.841 339.864 522.841 339.288C522.841 338.712 523.321 338.248 523.881 338.248C524.457 338.248 524.921 338.712 524.921 339.288C524.921 339.864 524.457 340.328 523.881 340.328ZM524.729 349H523.049V341.272H524.729V349ZM533.804 349H532.124V344.168C532.124 342.968 531.516 342.568 530.572 342.568C529.708 342.568 528.972 343.08 528.588 343.608V349H526.908V341.272H528.588V342.328C529.1 341.72 530.092 341.08 531.308 341.08C532.972 341.08 533.804 341.976 533.804 343.56V349ZM539.122 352.136C537.81 352.136 536.834 351.848 535.89 350.984L536.674 349.768C537.298 350.488 538.098 350.76 539.122 350.76C540.226 350.76 541.41 350.248 541.41 348.664V347.736C540.818 348.504 539.938 349.016 538.93 349.016C536.962 349.016 535.506 347.592 535.506 345.048C535.506 342.552 536.946 341.08 538.93 341.08C539.906 341.08 540.786 341.528 541.41 342.344V341.272H543.09V348.6C543.09 351.384 541.026 352.136 539.122 352.136ZM539.426 347.528C540.21 347.528 541.042 347.064 541.41 346.488V343.608C541.042 343.032 540.21 342.568 539.426 342.568C538.098 342.568 537.25 343.56 537.25 345.048C537.25 346.536 538.098 347.528 539.426 347.528ZM551.457 349H549.777V342.744H548.497V341.272H549.777V340.84C549.777 339.16 550.753 338.168 552.225 338.168C552.913 338.168 553.601 338.344 554.081 338.84L553.425 339.88C553.201 339.672 552.913 339.544 552.529 339.544C551.873 339.544 551.457 339.976 551.457 340.84V341.272H553.025V342.744H551.457V349ZM557.867 349.192C555.547 349.192 553.819 347.576 553.819 345.128C553.819 342.888 555.451 341.08 557.739 341.08C560.059 341.08 561.547 342.856 561.547 345.288V345.688H555.579C555.707 346.856 556.587 347.816 558.043 347.816C558.795 347.816 559.691 347.512 560.235 346.968L561.003 348.072C560.235 348.808 559.099 349.192 557.867 349.192ZM559.915 344.504C559.883 343.592 559.259 342.456 557.739 342.456C556.299 342.456 555.643 343.56 555.563 344.504H559.915ZM569.605 349H567.925V348.168C567.349 348.824 566.453 349.192 565.429 349.192C564.165 349.192 562.741 348.344 562.741 346.632C562.741 344.856 564.165 344.12 565.429 344.12C566.469 344.12 567.365 344.456 567.925 345.112V343.96C567.925 343.064 567.189 342.52 566.117 342.52C565.253 342.52 564.501 342.84 563.829 343.496L563.141 342.328C564.037 341.48 565.157 341.08 566.389 341.08C568.101 341.08 569.605 341.8 569.605 343.88V349ZM566.085 348.04C566.821 348.04 567.541 347.768 567.925 347.24V346.072C567.541 345.544 566.821 345.272 566.085 345.272C565.141 345.272 564.437 345.816 564.437 346.664C564.437 347.496 565.141 348.04 566.085 348.04ZM574.103 349.192C572.807 349.192 572.119 348.488 572.119 347.208V342.744H570.839V341.272H572.119V339.16H573.799V341.272H575.367V342.744H573.799V346.792C573.799 347.32 574.055 347.704 574.535 347.704C574.855 347.704 575.159 347.576 575.287 347.432L575.687 348.696C575.383 348.984 574.887 349.192 574.103 349.192ZM583.789 349H582.109V347.976C581.549 348.6 580.589 349.192 579.373 349.192C577.709 349.192 576.893 348.328 576.893 346.744V341.272H578.573V346.136C578.573 347.336 579.181 347.704 580.125 347.704C580.973 347.704 581.709 347.224 582.109 346.696V341.272H583.789V349ZM587.651 349H585.971V341.272H587.651V342.408C588.227 341.672 589.155 341.096 590.163 341.096V342.76C590.019 342.728 589.843 342.712 589.635 342.712C588.931 342.712 587.987 343.192 587.651 343.736V349ZM595.086 349.192C592.766 349.192 591.038 347.576 591.038 345.128C591.038 342.888 592.67 341.08 594.958 341.08C597.278 341.08 598.766 342.856 598.766 345.288V345.688H592.798C592.926 346.856 593.806 347.816 595.262 347.816C596.014 347.816 596.91 347.512 597.454 346.968L598.222 348.072C597.454 348.808 596.318 349.192 595.086 349.192ZM597.134 344.504C597.102 343.592 596.478 342.456 594.958 342.456C593.518 342.456 592.862 343.56 592.782 344.504H597.134ZM603.064 349.192C601.752 349.192 600.552 348.776 599.752 347.992L600.52 346.776C601.064 347.336 602.136 347.864 603.144 347.864C604.152 347.864 604.664 347.432 604.664 346.824C604.664 345.304 599.992 346.392 599.992 343.432C599.992 342.168 601.08 341.08 603.032 341.08C604.344 341.08 605.336 341.544 606.04 342.168L605.336 343.352C604.872 342.824 604.008 342.424 603.048 342.424C602.168 342.424 601.608 342.824 601.608 343.368C601.608 344.744 606.28 343.72 606.28 346.792C606.28 348.152 605.144 349.192 603.064 349.192ZM615.12 351.384L614.08 352.184C612.576 350.344 611.664 347.688 611.664 345.112C611.664 342.536 612.576 339.896 614.08 338.04L615.12 338.824C614.064 340.808 613.488 342.6 613.488 345.112C613.488 347.624 614.064 349.416 615.12 351.384ZM618.182 346.68C618.55 347.256 619.382 347.704 620.166 347.704C621.51 347.704 622.358 346.648 622.358 345.144C622.358 343.64 621.51 342.568 620.166 342.568C619.382 342.568 618.55 343.048 618.182 343.624V346.68ZM618.182 349H616.502V338.328H618.182V342.344C618.79 341.528 619.686 341.08 620.662 341.08C622.646 341.08 624.086 342.648 624.086 345.144C624.086 347.688 622.63 349.192 620.662 349.192C619.654 349.192 618.774 348.712 618.182 347.944V349ZM632.199 349H630.519V348.168C629.943 348.824 629.047 349.192 628.023 349.192C626.759 349.192 625.335 348.344 625.335 346.632C625.335 344.856 626.759 344.12 628.023 344.12C629.063 344.12 629.959 344.456 630.519 345.112V343.96C630.519 343.064 629.783 342.52 628.711 342.52C627.847 342.52 627.095 342.84 626.423 343.496L625.735 342.328C626.631 341.48 627.751 341.08 628.983 341.08C630.695 341.08 632.199 341.8 632.199 343.88V349ZM628.679 348.04C629.415 348.04 630.135 347.768 630.519 347.24V346.072C630.135 345.544 629.415 345.272 628.679 345.272C627.735 345.272 627.031 345.816 627.031 346.664C627.031 347.496 627.735 348.04 628.679 348.04ZM637.897 349.192C635.545 349.192 633.897 347.48 633.897 345.128C633.897 342.792 635.545 341.08 637.897 341.08C639.401 341.08 640.313 341.72 640.857 342.456L639.753 343.48C639.321 342.872 638.729 342.568 637.977 342.568C636.569 342.568 635.641 343.624 635.641 345.128C635.641 346.632 636.569 347.704 637.977 347.704C638.729 347.704 639.321 347.384 639.753 346.792L640.857 347.816C640.313 348.552 639.401 349.192 637.897 349.192ZM649.562 349H647.45L645.082 345.816L644.01 346.92V349H642.33V338.328H644.01V345L647.418 341.272H649.498L646.282 344.776L649.562 349ZM659.248 349H657.488L655.696 343.336L653.904 349H652.144L649.744 341.272H651.488L653.12 346.888L654.96 341.272H656.432L658.272 346.888L659.904 341.272H661.648L659.248 349ZM669.215 349H667.535V348.168C666.959 348.824 666.063 349.192 665.039 349.192C663.775 349.192 662.351 348.344 662.351 346.632C662.351 344.856 663.775 344.12 665.039 344.12C666.079 344.12 666.975 344.456 667.535 345.112V343.96C667.535 343.064 666.799 342.52 665.727 342.52C664.863 342.52 664.111 342.84 663.439 343.496L662.751 342.328C663.647 341.48 664.767 341.08 665.999 341.08C667.711 341.08 669.215 341.8 669.215 343.88V349ZM665.695 348.04C666.431 348.04 667.151 347.768 667.535 347.24V346.072C667.151 345.544 666.431 345.272 665.695 345.272C664.751 345.272 664.047 345.816 664.047 346.664C664.047 347.496 664.751 348.04 665.695 348.04ZM673.073 349H671.393V341.272H673.073V342.408C673.649 341.672 674.577 341.096 675.585 341.096V342.76C675.441 342.728 675.265 342.712 675.057 342.712C674.353 342.712 673.409 343.192 673.073 343.736V349ZM684.06 349H682.38V347.944C681.788 348.712 680.892 349.192 679.9 349.192C677.916 349.192 676.46 347.688 676.46 345.144C676.46 342.648 677.9 341.08 679.9 341.08C680.86 341.08 681.756 341.528 682.38 342.344V338.328H684.06V349ZM680.38 347.704C681.18 347.704 681.996 347.256 682.38 346.68V343.608C681.996 343.032 681.18 342.568 680.38 342.568C679.052 342.568 678.204 343.64 678.204 345.144C678.204 346.632 679.052 347.704 680.38 347.704ZM516.241 381.192C513.889 381.192 512.241 379.48 512.241 377.128C512.241 374.792 513.889 373.08 516.241 373.08C517.745 373.08 518.657 373.72 519.201 374.456L518.097 375.48C517.665 374.872 517.073 374.568 516.321 374.568C514.913 374.568 513.985 375.624 513.985 377.128C513.985 378.632 514.913 379.704 516.321 379.704C517.073 379.704 517.665 379.384 518.097 378.792L519.201 379.816C518.657 380.552 517.745 381.192 516.241 381.192ZM524.162 381.192C521.714 381.192 520.194 379.352 520.194 377.128C520.194 374.92 521.714 373.08 524.162 373.08C526.642 373.08 528.146 374.92 528.146 377.128C528.146 379.352 526.642 381.192 524.162 381.192ZM524.162 379.704C525.602 379.704 526.402 378.504 526.402 377.128C526.402 375.768 525.602 374.568 524.162 374.568C522.738 374.568 521.938 375.768 521.938 377.128C521.938 378.504 522.738 379.704 524.162 379.704ZM540.998 381H539.318V375.96C539.318 375.128 538.95 374.568 538.054 374.568C537.302 374.568 536.598 375.096 536.262 375.592V381H534.582V375.96C534.582 375.128 534.214 374.568 533.302 374.568C532.566 374.568 531.878 375.096 531.526 375.608V381H529.846V373.272H531.526V374.328C531.846 373.848 532.87 373.08 534.038 373.08C535.19 373.08 535.894 373.656 536.15 374.504C536.598 373.8 537.622 373.08 538.774 373.08C540.198 373.08 540.998 373.848 540.998 375.416V381ZM547.334 381.192C546.358 381.192 545.478 380.76 544.854 379.928V383.944H543.174V373.272H544.854V374.328C545.43 373.56 546.326 373.08 547.334 373.08C549.334 373.08 550.758 374.584 550.758 377.128C550.758 379.672 549.334 381.192 547.334 381.192ZM546.838 379.704C548.166 379.704 549.014 378.632 549.014 377.128C549.014 375.64 548.166 374.568 546.838 374.568C546.054 374.568 545.222 375.032 544.854 375.608V378.664C545.222 379.224 546.054 379.704 546.838 379.704ZM558.824 381H557.144V380.168C556.568 380.824 555.672 381.192 554.648 381.192C553.384 381.192 551.96 380.344 551.96 378.632C551.96 376.856 553.384 376.12 554.648 376.12C555.688 376.12 556.584 376.456 557.144 377.112V375.96C557.144 375.064 556.408 374.52 555.336 374.52C554.472 374.52 553.72 374.84 553.048 375.496L552.36 374.328C553.256 373.48 554.376 373.08 555.608 373.08C557.32 373.08 558.824 373.8 558.824 375.88V381ZM555.304 380.04C556.04 380.04 556.76 379.768 557.144 379.24V378.072C556.76 377.544 556.04 377.272 555.304 377.272C554.36 377.272 553.656 377.816 553.656 378.664C553.656 379.496 554.36 380.04 555.304 380.04ZM563.322 381.192C562.026 381.192 561.338 380.488 561.338 379.208V374.744H560.058V373.272H561.338V371.16H563.018V373.272H564.586V374.744H563.018V378.792C563.018 379.32 563.274 379.704 563.754 379.704C564.074 379.704 564.378 379.576 564.506 379.432L564.906 380.696C564.602 380.984 564.106 381.192 563.322 381.192ZM566.943 372.328C566.383 372.328 565.903 371.864 565.903 371.288C565.903 370.712 566.383 370.248 566.943 370.248C567.519 370.248 567.983 370.712 567.983 371.288C567.983 371.864 567.519 372.328 566.943 372.328ZM567.791 381H566.111V373.272H567.791V381ZM571.651 378.68C572.019 379.256 572.851 379.704 573.635 379.704C574.979 379.704 575.827 378.648 575.827 377.144C575.827 375.64 574.979 374.568 573.635 374.568C572.851 374.568 572.019 375.048 571.651 375.624V378.68ZM571.651 381H569.971V370.328H571.651V374.344C572.259 373.528 573.155 373.08 574.131 373.08C576.115 373.08 577.555 374.648 577.555 377.144C577.555 379.688 576.099 381.192 574.131 381.192C573.123 381.192 572.243 380.712 571.651 379.944V381ZM580.948 381H579.268V370.328H580.948V381ZM586.695 381.192C584.375 381.192 582.647 379.576 582.647 377.128C582.647 374.888 584.279 373.08 586.567 373.08C588.887 373.08 590.375 374.856 590.375 377.288V377.688H584.407C584.535 378.856 585.415 379.816 586.871 379.816C587.623 379.816 588.519 379.512 589.063 378.968L589.831 380.072C589.063 380.808 587.927 381.192 586.695 381.192ZM588.743 376.504C588.711 375.592 588.087 374.456 586.567 374.456C585.127 374.456 584.471 375.56 584.391 376.504H588.743ZM592.257 384.184L591.217 383.384C592.289 381.416 592.865 379.624 592.865 377.112C592.865 374.6 592.289 372.808 591.217 370.824L592.257 370.04C593.777 371.896 594.689 374.536 594.689 377.112C594.689 379.688 593.777 382.344 592.257 384.184Z" fill="black"/>
<path opacity="0.6" d="M565 93.5C569.142 93.5 572.5 96.8579 572.5 101V153C572.5 157.142 569.142 160.5 565 160.5H181C176.858 160.5 173.5 157.142 173.5 153V101C173.5 96.8579 176.858 93.5 181 93.5H565Z" stroke="#469BFF"/>
<rect x="562" y="101" width="52" height="378" rx="6" transform="rotate(90 562 101)" fill="#F3F7FC"/>
<path d="M222.686 132.192C219.534 132.192 217.086 129.952 217.086 126.672C217.086 123.376 219.534 121.152 222.686 121.152C224.83 121.152 226.174 122.256 226.958 123.536L225.374 124.368C224.862 123.472 223.822 122.816 222.686 122.816C220.574 122.816 219.006 124.416 219.006 126.672C219.006 128.896 220.574 130.528 222.686 130.528C223.822 130.528 224.862 129.856 225.374 128.976L226.974 129.776C226.158 131.056 224.83 132.192 222.686 132.192ZM235.32 132H233.64V127.136C233.64 125.92 233.032 125.568 232.088 125.568C231.224 125.568 230.488 126.08 230.104 126.592V132H228.424V121.328H230.104V125.312C230.616 124.704 231.608 124.08 232.824 124.08C234.488 124.08 235.32 124.944 235.32 126.528V132ZM241.086 132.192C238.75 132.192 237.038 130.576 237.038 128.128C237.038 125.888 238.67 124.08 240.958 124.08C243.278 124.08 244.75 125.84 244.75 128.272V128.688H238.798C238.926 129.84 239.79 130.816 241.246 130.816C242.014 130.816 242.894 130.512 243.454 129.952L244.222 131.056C243.438 131.792 242.302 132.192 241.086 132.192ZM243.134 127.488C243.086 126.576 242.462 125.456 240.942 125.456C239.518 125.456 238.846 126.56 238.782 127.488H243.134ZM249.928 132.192C247.592 132.192 245.944 130.464 245.944 128.128C245.944 125.792 247.592 124.08 249.928 124.08C251.448 124.08 252.344 124.72 252.888 125.456L251.784 126.464C251.352 125.856 250.76 125.568 250.008 125.568C248.616 125.568 247.672 126.624 247.672 128.128C247.672 129.632 248.616 130.704 250.008 130.704C250.76 130.704 251.352 130.384 251.784 129.776L252.888 130.816C252.344 131.536 251.448 132.192 249.928 132.192ZM261.609 132H259.497L257.145 128.8L256.057 129.92V132H254.377V121.328H256.057V128L259.465 124.272H261.545L258.345 127.776L261.609 132ZM267.788 123.328C267.212 123.328 266.748 122.864 266.748 122.288C266.748 121.712 267.212 121.248 267.788 121.248C268.364 121.248 268.828 121.712 268.828 122.288C268.828 122.864 268.364 123.328 267.788 123.328ZM268.62 132H266.94V124.272H268.62V132ZM272.895 132H271.215V125.728H269.935V124.272H271.215V123.84C271.215 122.16 272.191 121.168 273.647 121.168C274.351 121.168 275.039 121.344 275.503 121.84L274.847 122.88C274.623 122.672 274.335 122.544 273.967 122.544C273.295 122.544 272.895 122.976 272.895 123.84V124.272H274.463V125.728H272.895V132ZM286.757 132H285.077V130.976C284.533 131.584 283.573 132.192 282.357 132.192C280.693 132.192 279.861 131.312 279.861 129.744V124.272H281.541V129.12C281.541 130.32 282.149 130.704 283.109 130.704C283.957 130.704 284.693 130.208 285.077 129.696V124.272H286.757V132ZM293.1 132.192C292.124 132.192 291.26 131.744 290.62 130.928V134.944H288.94V124.272H290.62V125.328C291.196 124.56 292.092 124.08 293.1 124.08C295.1 124.08 296.524 125.584 296.524 128.128C296.524 130.672 295.1 132.192 293.1 132.192ZM292.604 130.704C293.932 130.704 294.796 129.632 294.796 128.128C294.796 126.624 293.932 125.568 292.604 125.568C291.82 125.568 291.004 126.016 290.62 126.592V129.648C290.988 130.224 291.82 130.704 292.604 130.704ZM305.325 132H303.645V130.944C303.053 131.712 302.173 132.192 301.165 132.192C299.197 132.192 297.741 130.688 297.741 128.128C297.741 125.632 299.181 124.08 301.165 124.08C302.141 124.08 303.037 124.512 303.645 125.344V121.328H305.325V132ZM301.661 130.704C302.445 130.704 303.277 130.24 303.645 129.664V126.608C303.277 126.032 302.445 125.568 301.661 125.568C300.317 125.568 299.469 126.64 299.469 128.128C299.469 129.632 300.317 130.704 301.661 130.704ZM313.918 132H312.238V131.152C311.662 131.824 310.75 132.192 309.726 132.192C308.478 132.192 307.054 131.328 307.054 129.632C307.054 127.84 308.462 127.104 309.726 127.104C310.782 127.104 311.662 127.44 312.238 128.096V126.944C312.238 126.048 311.486 125.504 310.43 125.504C309.566 125.504 308.798 125.824 308.142 126.496L307.438 125.328C308.334 124.464 309.454 124.08 310.686 124.08C312.414 124.08 313.918 124.8 313.918 126.864V132ZM310.398 131.04C311.118 131.04 311.838 130.768 312.238 130.24V129.056C311.838 128.528 311.118 128.256 310.398 128.256C309.454 128.256 308.734 128.816 308.734 129.648C308.734 130.496 309.454 131.04 310.398 131.04ZM318.432 132.192C317.12 132.192 316.448 131.488 316.448 130.192V125.728H315.168V124.272H316.448V122.16H318.128V124.272H319.696V125.728H318.128V129.776C318.128 130.304 318.384 130.704 318.864 130.704C319.184 130.704 319.472 130.56 319.6 130.416L320 131.696C319.696 131.968 319.2 132.192 318.432 132.192ZM324.789 132.192C322.453 132.192 320.741 130.576 320.741 128.128C320.741 125.888 322.373 124.08 324.661 124.08C326.981 124.08 328.453 125.84 328.453 128.272V128.688H322.501C322.629 129.84 323.493 130.816 324.949 130.816C325.717 130.816 326.597 130.512 327.157 129.952L327.925 131.056C327.141 131.792 326.005 132.192 324.789 132.192ZM326.837 127.488C326.789 126.576 326.165 125.456 324.645 125.456C323.221 125.456 322.549 126.56 322.485 127.488H326.837ZM332.767 132.192C331.439 132.192 330.255 131.76 329.455 130.976L330.223 129.776C330.767 130.336 331.839 130.848 332.831 130.848C333.839 130.848 334.367 130.432 334.367 129.824C334.367 128.304 329.695 129.392 329.695 126.416C329.695 125.152 330.783 124.08 332.735 124.08C334.047 124.08 335.039 124.544 335.727 125.152L335.023 126.336C334.559 125.824 333.711 125.408 332.735 125.408C331.855 125.408 331.311 125.824 331.311 126.368C331.311 127.728 335.983 126.704 335.983 129.776C335.983 131.152 334.847 132.192 332.767 132.192ZM350.295 132H348.535L346.727 126.336L344.935 132H343.175L340.775 124.272H342.519L344.151 129.888L345.991 124.272H347.479L349.303 129.888L350.935 124.272H352.695L350.295 132ZM354.709 123.328C354.133 123.328 353.669 122.864 353.669 122.288C353.669 121.712 354.133 121.248 354.709 121.248C355.285 121.248 355.749 121.712 355.749 122.288C355.749 122.864 355.285 123.328 354.709 123.328ZM355.541 132H353.861V124.272H355.541V132ZM359.401 132H357.721V121.328H359.401V132ZM363.26 132H361.58V121.328H363.26V132ZM375.981 132H374.301V131.152C373.725 131.824 372.813 132.192 371.789 132.192C370.541 132.192 369.117 131.328 369.117 129.632C369.117 127.84 370.525 127.104 371.789 127.104C372.845 127.104 373.725 127.44 374.301 128.096V126.944C374.301 126.048 373.549 125.504 372.493 125.504C371.629 125.504 370.861 125.824 370.205 126.496L369.501 125.328C370.397 124.464 371.517 124.08 372.749 124.08C374.477 124.08 375.981 124.8 375.981 126.864V132ZM372.461 131.04C373.181 131.04 373.901 130.768 374.301 130.24V129.056C373.901 128.528 373.181 128.256 372.461 128.256C371.517 128.256 370.797 128.816 370.797 129.648C370.797 130.496 371.517 131.04 372.461 131.04ZM380.254 132H378.574V125.728H377.294V124.272H378.574V123.84C378.574 122.16 379.55 121.168 381.006 121.168C381.71 121.168 382.398 121.344 382.862 121.84L382.206 122.88C381.982 122.672 381.694 122.544 381.326 122.544C380.654 122.544 380.254 122.976 380.254 123.84V124.272H381.822V125.728H380.254V132ZM385.198 132H383.518V125.728H382.238V124.272H383.518V123.84C383.518 122.16 384.494 121.168 385.95 121.168C386.654 121.168 387.342 121.344 387.806 121.84L387.15 122.88C386.926 122.672 386.638 122.544 386.27 122.544C385.598 122.544 385.198 122.976 385.198 123.84V124.272H386.766V125.728H385.198V132ZM391.617 132.192C389.281 132.192 387.569 130.576 387.569 128.128C387.569 125.888 389.201 124.08 391.489 124.08C393.809 124.08 395.281 125.84 395.281 128.272V128.688H389.329C389.457 129.84 390.321 130.816 391.777 130.816C392.545 130.816 393.425 130.512 393.985 129.952L394.753 131.056C393.969 131.792 392.833 132.192 391.617 132.192ZM393.665 127.488C393.617 126.576 392.993 125.456 391.473 125.456C390.049 125.456 389.377 126.56 389.313 127.488H393.665ZM400.46 132.192C398.124 132.192 396.476 130.464 396.476 128.128C396.476 125.792 398.124 124.08 400.46 124.08C401.98 124.08 402.876 124.72 403.42 125.456L402.316 126.464C401.884 125.856 401.292 125.568 400.54 125.568C399.148 125.568 398.204 126.624 398.204 128.128C398.204 129.632 399.148 130.704 400.54 130.704C401.292 130.704 401.884 130.384 402.316 129.776L403.42 130.816C402.876 131.536 401.98 132.192 400.46 132.192ZM407.244 132.192C405.932 132.192 405.26 131.488 405.26 130.192V125.728H403.98V124.272H405.26V122.16H406.94V124.272H408.508V125.728H406.94V129.776C406.94 130.304 407.196 130.704 407.676 130.704C407.996 130.704 408.284 130.56 408.412 130.416L408.812 131.696C408.508 131.968 408.012 132.192 407.244 132.192ZM417.727 132.192C415.391 132.192 413.679 130.576 413.679 128.128C413.679 125.888 415.311 124.08 417.599 124.08C419.919 124.08 421.391 125.84 421.391 128.272V128.688H415.439C415.567 129.84 416.431 130.816 417.887 130.816C418.655 130.816 419.535 130.512 420.095 129.952L420.863 131.056C420.079 131.792 418.943 132.192 417.727 132.192ZM419.775 127.488C419.727 126.576 419.103 125.456 417.583 125.456C416.159 125.456 415.487 126.56 415.423 127.488H419.775ZM429.833 132H427.945L425.945 129.152L423.929 132H422.041L424.889 128.032L422.217 124.272H424.105L425.929 126.88L427.769 124.272H429.657L426.985 128.032L429.833 132ZM431.85 123.328C431.274 123.328 430.81 122.864 430.81 122.288C430.81 121.712 431.274 121.248 431.85 121.248C432.426 121.248 432.89 121.712 432.89 122.288C432.89 122.864 432.426 123.328 431.85 123.328ZM432.682 132H431.002V124.272H432.682V132ZM437.517 132.192C436.189 132.192 435.005 131.76 434.205 130.976L434.973 129.776C435.517 130.336 436.589 130.848 437.581 130.848C438.589 130.848 439.117 130.432 439.117 129.824C439.117 128.304 434.445 129.392 434.445 126.416C434.445 125.152 435.533 124.08 437.485 124.08C438.797 124.08 439.789 124.544 440.477 125.152L439.773 126.336C439.309 125.824 438.461 125.408 437.485 125.408C436.605 125.408 436.061 125.824 436.061 126.368C436.061 127.728 440.733 126.704 440.733 129.776C440.733 131.152 439.597 132.192 437.517 132.192ZM444.744 132.192C443.432 132.192 442.76 131.488 442.76 130.192V125.728H441.48V124.272H442.76V122.16H444.44V124.272H446.008V125.728H444.44V129.776C444.44 130.304 444.696 130.704 445.176 130.704C445.496 130.704 445.784 130.56 445.912 130.416L446.312 131.696C446.008 131.968 445.512 132.192 444.744 132.192ZM448.366 123.328C447.79 123.328 447.326 122.864 447.326 122.288C447.326 121.712 447.79 121.248 448.366 121.248C448.942 121.248 449.406 121.712 449.406 122.288C449.406 122.864 448.942 123.328 448.366 123.328ZM449.198 132H447.518V124.272H449.198V132ZM458.289 132H456.609V127.168C456.609 125.952 455.985 125.568 455.041 125.568C454.193 125.568 453.457 126.08 453.057 126.592V132H451.377V124.272H453.057V125.312C453.569 124.704 454.577 124.08 455.793 124.08C457.457 124.08 458.289 124.976 458.289 126.56V132ZM463.623 135.136C462.311 135.136 461.335 134.848 460.375 133.984L461.159 132.768C461.799 133.488 462.599 133.76 463.623 133.76C464.727 133.76 465.911 133.248 465.911 131.6V130.72C465.319 131.504 464.439 132.016 463.431 132.016C461.463 132.016 460.007 130.592 460.007 128.048C460.007 125.536 461.431 124.08 463.431 124.08C464.407 124.08 465.287 124.512 465.911 125.344V124.272H467.591V131.6C467.591 134.384 465.511 135.136 463.623 135.136ZM463.927 130.512C464.711 130.512 465.527 130.048 465.911 129.488V126.592C465.527 126.032 464.711 125.568 463.927 125.568C462.583 125.568 461.735 126.56 461.735 128.048C461.735 129.536 462.583 130.512 463.927 130.512ZM475.989 132H474.309V125.728H473.029V124.272H474.309V123.84C474.309 122.16 475.285 121.168 476.741 121.168C477.445 121.168 478.133 121.344 478.597 121.84L477.941 122.88C477.717 122.672 477.429 122.544 477.061 122.544C476.389 122.544 475.989 122.976 475.989 123.84V124.272H477.557V125.728H475.989V132ZM482.414 132.192C480.078 132.192 478.366 130.576 478.366 128.128C478.366 125.888 479.998 124.08 482.286 124.08C484.606 124.08 486.078 125.84 486.078 128.272V128.688H480.126C480.254 129.84 481.118 130.816 482.574 130.816C483.342 130.816 484.222 130.512 484.782 129.952L485.55 131.056C484.766 131.792 483.63 132.192 482.414 132.192ZM484.462 127.488C484.414 126.576 483.79 125.456 482.27 125.456C480.846 125.456 480.174 126.56 480.11 127.488H484.462ZM494.152 132H492.472V131.152C491.896 131.824 490.984 132.192 489.96 132.192C488.712 132.192 487.288 131.328 487.288 129.632C487.288 127.84 488.696 127.104 489.96 127.104C491.016 127.104 491.896 127.44 492.472 128.096V126.944C492.472 126.048 491.72 125.504 490.664 125.504C489.8 125.504 489.032 125.824 488.376 126.496L487.672 125.328C488.568 124.464 489.688 124.08 490.92 124.08C492.648 124.08 494.152 124.8 494.152 126.864V132ZM490.632 131.04C491.352 131.04 492.072 130.768 492.472 130.24V129.056C492.072 128.528 491.352 128.256 490.632 128.256C489.688 128.256 488.968 128.816 488.968 129.648C488.968 130.496 489.688 131.04 490.632 131.04ZM498.666 132.192C497.354 132.192 496.682 131.488 496.682 130.192V125.728H495.402V124.272H496.682V122.16H498.362V124.272H499.93V125.728H498.362V129.776C498.362 130.304 498.618 130.704 499.098 130.704C499.418 130.704 499.706 130.56 499.834 130.416L500.234 131.696C499.93 131.968 499.434 132.192 498.666 132.192ZM508.336 132H506.656V130.976C506.112 131.584 505.152 132.192 503.936 132.192C502.272 132.192 501.44 131.312 501.44 129.744V124.272H503.12V129.12C503.12 130.32 503.728 130.704 504.688 130.704C505.536 130.704 506.272 130.208 506.656 129.696V124.272H508.336V132ZM512.198 132H510.518V124.272H512.198V125.392C512.79 124.656 513.718 124.08 514.71 124.08V125.744C514.566 125.712 514.406 125.696 514.198 125.696C513.478 125.696 512.534 126.176 512.198 126.736V132ZM519.649 132.192C517.313 132.192 515.601 130.576 515.601 128.128C515.601 125.888 517.233 124.08 519.521 124.08C521.841 124.08 523.313 125.84 523.313 128.272V128.688H517.361C517.489 129.84 518.353 130.816 519.809 130.816C520.577 130.816 521.457 130.512 522.017 129.952L522.785 131.056C522.001 131.792 520.865 132.192 519.649 132.192ZM521.697 127.488C521.649 126.576 521.025 125.456 519.505 125.456C518.081 125.456 517.409 126.56 517.345 127.488H521.697ZM526.266 128.864C525.882 128.496 525.706 128.016 525.706 127.488C525.706 125.536 528.282 125.344 528.282 123.984C528.282 123.36 527.786 122.832 526.762 122.832C525.77 122.832 525.066 123.264 524.538 123.952L523.45 122.752C524.266 121.744 525.498 121.168 526.938 121.168C528.954 121.168 530.186 122.24 530.186 123.68C530.186 126.048 527.338 126.24 527.338 127.664C527.338 127.92 527.466 128.224 527.69 128.384L526.266 128.864ZM526.842 132.176C526.234 132.176 525.722 131.648 525.722 131.04C525.722 130.448 526.234 129.936 526.842 129.936C527.45 129.936 527.962 130.448 527.962 131.04C527.962 131.648 527.45 132.176 526.842 132.176Z" fill="black"/>
<path opacity="0.8" d="M184 278L189.774 268H178.226L184 278ZM184 237V236H183V237H184ZM185 274.925V272.875H183V274.925H185ZM185 270.825V268.775H183V270.825H185ZM185 266.725V264.675H183V266.725H185ZM185 262.625V260.575H183V262.625H185ZM185 258.525V256.475H183V258.525H185ZM185 254.425V252.375H183V254.425H185ZM185 250.325V248.275H183V250.325H185ZM185 246.225V244.175H183V246.225H185ZM185 242.125V240.075H183V242.125H185ZM185 238.025V237H183V238.025H185ZM184 238H184.993V236H184V238ZM186.978 238H188.963V236H186.978V238ZM190.949 238H192.934V236H190.949V238ZM194.919 238H196.904V236H194.919V238ZM198.89 238H200.875V236H198.89V238ZM202.86 238H204.846V236H202.86V238ZM206.831 238H208.816V236H206.831V238ZM210.801 238H212.787V236H210.801V238ZM214.772 238H216.757V236H214.772V238ZM218.743 238H220.728V236H218.743V238ZM222.713 238H224.699V236H222.713V238ZM226.684 238H228.669V236H226.684V238ZM230.654 238H232.64V236H230.654V238ZM234.625 238H236.61V236H234.625V238ZM238.596 238H240.581V236H238.596V238ZM242.566 238H244.551V236H242.566V238ZM246.537 238H248.522V236H246.537V238ZM250.507 238H252.493V236H250.507V238ZM254.478 238H256.463V236H254.478V238ZM258.449 238H260.434V236H258.449V238ZM262.419 238H264.404V236H262.419V238ZM266.39 238H268.375V236H266.39V238ZM270.36 238H272.346V236H270.36V238ZM274.331 238H276.316V236H274.331V238ZM278.301 238H280.287V236H278.301V238ZM282.272 238H284.257V236H282.272V238ZM286.243 238H288.228V236H286.243V238ZM290.213 238H292.198V236H290.213V238ZM294.184 238H296.169V236H294.184V238ZM298.154 238H300.14V236H298.154V238ZM302.125 238H304.11V236H302.125V238ZM306.095 238H308.081V236H306.095V238ZM310.066 238H312.051V236H310.066V238ZM314.037 238H316.022V236H314.037V238ZM318.007 238H319V236H318.007V238Z" fill="#40C585"/>
<path opacity="0.8" d="M564 278L558.226 268H569.774L564 278ZM564 237V236H565V237H564ZM563 274.925V272.875H565V274.925H563ZM563 270.825V268.775H565V270.825H563ZM563 266.725V264.675H565V266.725H563ZM563 262.625V260.575H565V262.625H563ZM563 258.525V256.475H565V258.525H563ZM563 254.425V252.375H565V254.425H563ZM563 250.325V248.275H565V250.325H563ZM563 246.225V244.175H565V246.225H563ZM563 242.125V240.075H565V242.125H563ZM563 238.025V237H565V238.025H563ZM564 238H563.007V236H564V238ZM561.022 238H559.037V236H561.022V238ZM557.051 238H555.066V236H557.051V238ZM553.081 238H551.096V236H553.081V238ZM549.11 238H547.125V236H549.11V238ZM545.14 238H543.154V236H545.14V238ZM541.169 238H539.184V236H541.169V238ZM537.199 238H535.213V236H537.199V238ZM533.228 238H531.243V236H533.228V238ZM529.257 238H527.272V236H529.257V238ZM525.287 238H523.301V236H525.287V238ZM521.316 238H519.331V236H521.316V238ZM517.346 238H515.36V236H517.346V238ZM513.375 238H511.39V236H513.375V238ZM509.404 238H507.419V236H509.404V238ZM505.434 238H503.449V236H505.434V238ZM501.463 238H499.478V236H501.463V238ZM497.493 238H495.507V236H497.493V238ZM493.522 238H491.537V236H493.522V238ZM489.551 238H487.566V236H489.551V238ZM485.581 238H483.596V236H485.581V238ZM481.61 238H479.625V236H481.61V238ZM477.64 238H475.654V236H477.64V238ZM473.669 238H471.684V236H473.669V238ZM469.699 238H467.713V236H469.699V238ZM465.728 238H463.743V236H465.728V238ZM461.757 238H459.772V236H461.757V238ZM457.787 238H455.802V236H457.787V238ZM453.816 238H451.831V236H453.816V238ZM449.846 238H447.86V236H449.846V238ZM445.875 238H443.89V236H445.875V238ZM441.905 238H439.919V236H441.905V238ZM437.934 238H435.949V236H437.934V238ZM433.963 238H431.978V236H433.963V238ZM429.993 238H429V236H429.993V238Z" fill="#40C585"/>
<path d="M496.54 226H494.732L489.164 218.384V226H487.292V215.328H489.212L494.668 222.736V215.328H496.54V226ZM502.248 226.192C499.8 226.192 498.28 224.352 498.28 222.128C498.28 219.92 499.8 218.08 502.248 218.08C504.728 218.08 506.232 219.92 506.232 222.128C506.232 224.352 504.728 226.192 502.248 226.192ZM502.248 224.704C503.688 224.704 504.488 223.504 504.488 222.128C504.488 220.768 503.688 219.568 502.248 219.568C500.824 219.568 500.024 220.768 500.024 222.128C500.024 223.504 500.824 224.704 502.248 224.704Z" fill="#666666"/>
<path d="M245.212 226H243.34V221.568L239.196 215.328H241.34L244.284 219.904L247.196 215.328H249.34L245.212 221.568V226ZM252.023 226.192C249.703 226.192 247.975 224.576 247.975 222.128C247.975 219.888 249.607 218.08 251.895 218.08C254.215 218.08 255.703 219.856 255.703 222.288V222.688H249.735C249.863 223.856 250.743 224.816 252.199 224.816C252.951 224.816 253.847 224.512 254.391 223.968L255.159 225.072C254.391 225.808 253.255 226.192 252.023 226.192ZM254.071 221.504C254.039 220.592 253.415 219.456 251.895 219.456C250.455 219.456 249.799 220.56 249.719 221.504H254.071ZM260.001 226.192C258.689 226.192 257.489 225.776 256.689 224.992L257.457 223.776C258.001 224.336 259.073 224.864 260.081 224.864C261.089 224.864 261.601 224.432 261.601 223.824C261.601 222.304 256.929 223.392 256.929 220.432C256.929 219.168 258.017 218.08 259.969 218.08C261.281 218.08 262.273 218.544 262.977 219.168L262.273 220.352C261.809 219.824 260.945 219.424 259.985 219.424C259.105 219.424 258.545 219.824 258.545 220.368C258.545 221.744 263.217 220.72 263.217 223.792C263.217 225.152 262.081 226.192 260.001 226.192Z" fill="#666666"/>
<path opacity="0.6" d="M428.5 210V262C428.5 266.142 425.142 269.5 421 269.5H326C321.858 269.5 318.5 266.142 318.5 262V210C318.5 205.858 321.858 202.5 326 202.5H421C425.142 202.5 428.5 205.858 428.5 210Z" stroke="#40C585"/>
<rect x="418" y="210" width="52" height="89" rx="6" transform="rotate(90 418 210)" fill="#F0FAF5"/>
<path d="M354.353 241H352.481V236.568L348.337 230.328H350.481L353.409 234.888L356.337 230.328H358.481L354.353 236.568V241ZM361.164 241.192C358.828 241.192 357.116 239.576 357.116 237.128C357.116 234.888 358.748 233.08 361.036 233.08C363.356 233.08 364.828 234.84 364.828 237.272V237.688H358.876C359.004 238.84 359.868 239.816 361.324 239.816C362.092 239.816 362.972 239.512 363.532 238.952L364.3 240.056C363.516 240.792 362.38 241.192 361.164 241.192ZM363.212 236.488C363.164 235.576 362.54 234.456 361.02 234.456C359.596 234.456 358.924 235.56 358.86 236.488H363.212ZM369.142 241.192C367.814 241.192 366.63 240.76 365.83 239.976L366.598 238.776C367.142 239.336 368.214 239.848 369.206 239.848C370.214 239.848 370.742 239.432 370.742 238.824C370.742 237.304 366.07 238.392 366.07 235.416C366.07 234.152 367.158 233.08 369.11 233.08C370.422 233.08 371.414 233.544 372.102 234.152L371.398 235.336C370.934 234.824 370.086 234.408 369.11 234.408C368.23 234.408 367.686 234.824 367.686 235.368C367.686 236.728 372.358 235.704 372.358 238.776C372.358 240.152 371.222 241.192 369.142 241.192ZM374.193 241.32H372.945L376.737 230.008H377.985L374.193 241.32ZM388.376 241H386.568L381 233.368V241H379.128V230.328H381.048L386.504 237.72V230.328H388.376V241ZM394.1 241.192C391.636 241.192 390.132 239.336 390.132 237.128C390.132 234.904 391.636 233.08 394.1 233.08C396.564 233.08 398.068 234.904 398.068 237.128C398.068 239.336 396.564 241.192 394.1 241.192ZM394.1 239.704C395.54 239.704 396.324 238.504 396.324 237.128C396.324 235.768 395.54 234.568 394.1 234.568C392.676 234.568 391.876 235.768 391.876 237.128C391.876 238.504 392.676 239.704 394.1 239.704Z" fill="black"/>
<path opacity="0.8" d="M373 202L378.774 192L367.226 192L373 202ZM372 161L372 162.025L374 162.025L374 161L372 161ZM372 164.075L372 166.125L374 166.125L374 164.075L372 164.075ZM372 168.175L372 170.225L374 170.225L374 168.175L372 168.175ZM372 172.275L372 174.325L374 174.325L374 172.275L372 172.275ZM372 176.375L372 178.425L374 178.425L374 176.375L372 176.375ZM372 180.475L372 182.525L374 182.525L374 180.475L372 180.475ZM372 184.575L372 186.625L374 186.625L374 184.575L372 184.575ZM372 188.675L372 190.725L374 190.725L374 188.675L372 188.675ZM372 192.775L372 194.825L374 194.825L374 192.775L372 192.775ZM372 196.875L372 198.925L374 198.925L374 196.875L372 196.875Z" fill="#469BFF"/>
<path opacity="0.8" d="M373 93L378.774 83L367.226 83L373 93ZM372 52L372 53.025L374 53.025L374 52L372 52ZM372 55.075L372 57.125L374 57.125L374 55.075L372 55.075ZM372 59.175L372 61.225L374 61.225L374 59.175L372 59.175ZM372 63.275L372 65.325L374 65.325L374 63.275L372 63.275ZM372 67.375L372 69.425L374 69.425L374 67.375L372 67.375ZM372 71.475L372 73.525L374 73.525L374 71.475L372 71.475ZM372 75.575L372 77.625L374 77.625L374 75.575L372 75.575ZM372 79.675L372 81.725L374 81.725L374 79.675L372 79.675ZM372 83.775L372 85.825L374 85.825L374 83.775L372 83.775ZM372 87.875L372 89.925L374 89.925L374 87.875L372 87.875Z" fill="#469BFF"/>
<path opacity="0.8" d="M184 451L189.774 441L178.226 441L184 451ZM183 410L183 411.025L185 411.025L185 410L183 410ZM183 413.075L183 415.125L185 415.125L185 413.075L183 413.075ZM183 417.175L183 419.225L185 419.225L185 417.175L183 417.175ZM183 421.275L183 423.325L185 423.325L185 421.275L183 421.275ZM183 425.375L183 427.425L185 427.425L185 425.375L183 425.375ZM183 429.475L183 431.525L185 431.525L185 429.475L183 429.475ZM183 433.575L183 435.625L185 435.625L185 433.575L183 433.575ZM183 437.675L183 439.725L185 439.725L185 437.675L183 437.675ZM183 441.775L183 443.825L185 443.825L185 441.775L183 441.775ZM183 445.875L183 447.925L185 447.925L185 445.875L183 445.875Z" fill="#FFB800"/>
<path opacity="0.8" d="M564 451L569.774 441L558.226 441L564 451ZM563 410L563 411.025L565 411.025L565 410L563 410ZM563 413.075L563 415.125L565 415.125L565 413.075L563 413.075ZM563 417.175L563 419.225L565 419.225L565 417.175L563 417.175ZM563 421.275L563 423.325L565 423.325L565 421.275L563 421.275ZM563 425.375L563 427.425L565 427.425L565 425.375L563 425.375ZM563 429.475L563 431.525L565 431.525L565 429.475L563 429.475ZM563 433.575L563 435.625L565 435.625L565 433.575L563 433.575ZM563 437.675L563 439.725L565 439.725L565 437.675L563 437.675ZM563 441.775L563 443.825L565 443.825L565 441.775L563 441.775ZM563 445.875L563 447.925L565 447.925L565 445.875L563 445.875Z" fill="#8371F3"/>
</svg>
