<svg width="443" height="628" viewBox="0 0 443 628" fill="none" xmlns="http://www.w3.org/2000/svg">
<mask id="mask0_14176_1880" style="mask-type:alpha" maskUnits="userSpaceOnUse" x="0" y="0" width="443" height="628">
<rect width="443" height="628" fill="#D9D9D9"/>
</mask>
<g mask="url(#mask0_14176_1880)">
<rect width="443" height="628" transform="matrix(1 0 0 -1 0 628)" fill="url(#paint0_radial_14176_1880)"/>
<path opacity="0.15" fill-rule="evenodd" clip-rule="evenodd" d="M326.056 618.795C531.706 539.708 647.998 344.49 585.803 182.763C523.608 21.0356 306.477 -45.9581 100.827 33.1283C-104.822 112.215 -221.115 307.433 -158.92 469.16C-96.7246 630.887 120.407 697.881 326.056 618.795ZM312.533 577.169C513.536 499.869 632.787 323.588 578.888 183.434C524.989 43.28 318.351 -7.67379 117.348 69.6257C-83.6551 146.925 -202.906 323.206 -149.008 463.36C-95.1086 603.514 111.53 654.468 312.533 577.169Z" fill="url(#paint1_linear_14176_1880)"/>
<path opacity="0.2" fill-rule="evenodd" clip-rule="evenodd" d="M228.608 584.409C447.768 623.791 646.533 538.296 672.561 393.45C698.59 248.604 542.024 99.2581 322.864 59.876C103.703 20.4939 -95.0623 105.989 -121.09 250.835C-147.118 395.681 9.44667 545.027 228.608 584.409ZM237.369 548.946C451.578 587.439 644.081 513.728 667.337 384.31C690.592 254.891 535.794 118.773 321.585 80.2806C107.376 41.7883 -85.1268 115.499 -108.383 244.917C-131.638 374.336 23.1597 510.454 237.369 548.946Z" fill="url(#paint2_linear_14176_1880)"/>
<g opacity="0.3" filter="url(#filter0_f_14176_1880)">
<circle cx="221.5" cy="318.5" r="194.5" fill="#3A0D6E"/>
</g>
<path d="M97.9055 253.754C98.7091 246.387 104.931 240.807 112.342 240.807H369.024C377.667 240.807 384.397 248.311 383.46 256.903L364.846 427.534C364.042 434.901 357.82 440.481 350.409 440.481H93.7273C85.0837 440.481 78.3538 432.977 79.2912 424.385L97.9055 253.754Z" fill="url(#paint3_linear_14176_1880)"/>
<path d="M87.6792 257.211C88.1056 253.55 91.2063 250.79 94.8913 250.79H366.169C370.512 250.79 373.884 254.577 373.382 258.891L353.291 431.338C352.864 434.998 349.764 437.758 346.079 437.758H74.8005C70.4574 437.758 67.0858 433.971 67.5884 429.657L87.6792 257.211Z" fill="url(#paint4_linear_14176_1880)"/>
<rect x="294.538" y="417.421" width="79.8699" height="79.8699" rx="7.98699" fill="url(#paint5_linear_14176_1880)"/>
<rect opacity="0.5" x="304.521" y="427.404" width="59.9025" height="59.9024" rx="7.98699" fill="white"/>
<path d="M319.478 472.127H312.24L323.268 440.179H331.973L342.986 472.127H335.748L327.746 447.48H327.496L319.478 472.127ZM319.025 459.569H336.123L336.123 464.842H319.025L319.025 459.569ZM353.586 440.179L353.586 472.127H346.832L346.832 440.179H353.586Z" fill="white"/>
<path d="M374.412 432.894H391.487C392.077 432.894 392.659 432.764 393.193 432.512L410.354 424.408" stroke="#ECD0FB" stroke-width="3.9935"/>
<path d="M416.842 423.411C416.842 425.341 415.277 426.905 413.347 426.905C411.417 426.905 409.853 425.341 409.853 423.411C409.853 421.481 411.417 419.917 413.347 419.917C415.277 419.917 416.842 421.481 416.842 423.411Z" stroke="#D084FF" stroke-width="2.99512"/>
<path d="M374.412 464.843H385.774C386.346 464.843 386.911 464.966 387.432 465.203L400.079 470.972C400.6 471.209 401.165 471.332 401.737 471.332H415.845" stroke="#ECD0FB" stroke-width="3.9935"/>
<path d="M422.833 471.333C422.833 473.263 421.268 474.827 419.339 474.827C417.409 474.827 415.844 473.263 415.844 471.333C415.844 469.403 417.409 467.838 419.339 467.838C421.268 467.838 422.833 469.403 422.833 471.333Z" stroke="#D084FF" stroke-width="2.99512"/>
<path d="M374.412 486.309H384.295C384.693 486.309 385.088 486.249 385.469 486.132L397.3 482.492C397.68 482.375 398.076 482.315 398.474 482.315H406.36" stroke="#ECD0FB" stroke-width="3.9935"/>
<path d="M413.849 482.315C413.849 484.245 412.285 485.809 410.355 485.809C408.425 485.809 406.861 484.245 406.861 482.315C406.861 480.385 408.425 478.821 410.355 478.821C412.285 478.821 413.849 480.385 413.849 482.315Z" stroke="#D084FF" stroke-width="2.99512"/>
<path d="M374.412 458.353H407.358" stroke="#ECD0FB" stroke-width="3.9935"/>
<path d="M413.849 457.355C413.849 459.285 412.285 460.849 410.355 460.849C408.425 460.849 406.861 459.285 406.861 457.355C406.861 455.425 408.425 453.861 410.355 453.861C412.285 453.861 413.849 455.425 413.849 457.355Z" stroke="#D084FF" stroke-width="2.99512"/>
<path d="M374.412 446.374H394.38" stroke="#ECD0FB" stroke-width="3.9935"/>
<path d="M400.87 446.374C400.87 448.304 399.306 449.868 397.376 449.868C395.446 449.868 393.881 448.304 393.881 446.374C393.881 444.444 395.446 442.879 397.376 442.879C399.306 442.879 400.87 444.444 400.87 446.374Z" stroke="#D084FF" stroke-width="2.99512"/>
<path d="M294.542 428.902H277.744C276.978 428.902 276.229 429.123 275.585 429.537L262.594 437.888" stroke="#ECD0FB" stroke-width="3.9935"/>
<path d="M256.105 438.386C256.105 440.316 257.669 441.881 259.599 441.881C261.529 441.881 263.093 440.316 263.093 438.386C263.093 436.457 261.529 434.892 259.599 434.892C257.669 434.892 256.105 436.457 256.105 438.386Z" stroke="#D084FF" stroke-width="2.99512"/>
<path d="M294.542 473.829H278.877C278.028 473.829 277.2 474.1 276.515 474.602L271.136 478.547C270.451 479.049 269.624 479.32 268.774 479.32H260.098" stroke="#ECD0FB" stroke-width="3.9935"/>
<path d="M253.11 479.32C253.11 481.25 254.674 482.814 256.604 482.814C258.534 482.814 260.098 481.25 260.098 479.32C260.098 477.39 258.534 475.826 256.604 475.826C254.674 475.826 253.11 477.39 253.11 479.32Z" stroke="#D084FF" stroke-width="2.99512"/>
<path d="M294.542 489.305H279.067" stroke="#ECD0FB" stroke-width="3.9935"/>
<path d="M272.08 489.304C272.08 491.234 273.645 492.799 275.575 492.799C277.504 492.799 279.069 491.234 279.069 489.304C279.069 487.375 277.504 485.81 275.575 485.81C273.645 485.81 272.08 487.375 272.08 489.304Z" stroke="#D084FF" stroke-width="2.99512"/>
<path d="M294.542 456.357L272.578 456.357" stroke="#ECD0FB" stroke-width="3.9935"/>
<path d="M265.089 456.357C265.089 458.287 266.653 459.851 268.583 459.851C270.513 459.851 272.078 458.287 272.078 456.357C272.078 454.427 270.513 452.863 268.583 452.863C266.653 452.863 265.089 454.427 265.089 456.357Z" stroke="#D084FF" stroke-width="2.99512"/>
<path d="M294.541 443.38L277.569 443.38" stroke="#ECD0FB" stroke-width="3.9935"/>
<path d="M271.079 443.38C271.079 445.309 272.644 446.874 274.574 446.874C276.503 446.874 278.068 445.309 278.068 443.38C278.068 441.45 276.503 439.885 274.574 439.885C272.644 439.885 271.079 441.45 271.079 443.38Z" stroke="#D084FF" stroke-width="2.99512"/>
<g filter="url(#filter1_d_14176_1880)">
<ellipse cx="256.352" cy="264.404" rx="16.337" ry="16.337" fill="white"/>
</g>
<g opacity="0.9" filter="url(#filter2_d_14176_1880)">
<path d="M287.664 264.405C287.664 281.698 273.645 295.717 256.352 295.717C239.058 295.717 225.039 281.698 225.039 264.405C225.039 247.111 239.058 233.092 256.352 233.092C273.645 233.092 287.664 247.111 287.664 264.405Z" stroke="white" stroke-width="2.72284" shape-rendering="crispEdges"/>
</g>
<g opacity="0.6" filter="url(#filter3_d_14176_1880)">
<path d="M318.07 264.405C318.07 298.49 290.438 326.122 256.352 326.122C222.266 326.122 194.634 298.49 194.634 264.405C194.634 230.319 222.266 202.687 256.352 202.687C290.438 202.687 318.07 230.319 318.07 264.405Z" stroke="white" stroke-width="1.81523" shape-rendering="crispEdges"/>
</g>
<g opacity="0.5" filter="url(#filter4_d_14176_1880)">
<path d="M342.121 264.404C342.121 311.773 303.72 350.173 256.351 350.173C208.982 350.173 170.582 311.773 170.582 264.404C170.582 217.035 208.982 178.634 256.351 178.634C303.72 178.634 342.121 217.035 342.121 264.404Z" stroke="white" stroke-width="0.907613" shape-rendering="crispEdges"/>
</g>
<g opacity="0.3" filter="url(#filter5_d_14176_1880)">
<path d="M386.853 257.201C386.917 258.394 386.966 259.592 386.999 260.793L386.545 260.805C386.578 262.001 386.594 263.201 386.594 264.404C386.594 265.608 386.578 266.807 386.545 268.003L386.999 268.015C386.966 269.217 386.917 270.414 386.853 271.607L386.4 271.583C386.269 273.986 386.073 276.372 385.814 278.739L386.265 278.789C386.134 279.986 385.987 281.178 385.824 282.366L385.374 282.304C385.047 284.685 384.655 287.046 384.201 289.384L384.647 289.47C384.417 290.652 384.172 291.828 383.91 292.998L383.468 292.899C382.944 295.243 382.358 297.564 381.71 299.858L382.147 299.982C381.821 301.138 381.479 302.287 381.122 303.43L380.689 303.295C379.973 305.586 379.195 307.851 378.358 310.086L378.783 310.245C378.361 311.371 377.924 312.49 377.472 313.601L377.052 313.43C376.148 315.652 375.186 317.843 374.165 320.001L374.576 320.195C374.062 321.282 373.533 322.361 372.991 323.431L372.586 323.226C371.502 325.363 370.361 327.467 369.164 329.535L369.557 329.763C368.955 330.802 368.34 331.833 367.711 332.854L367.324 332.616C366.068 334.656 364.756 336.659 363.393 338.622L363.765 338.881C363.08 339.868 362.381 340.844 361.67 341.811L361.304 341.542C359.885 343.47 358.413 345.358 356.892 347.203L357.242 347.492C356.478 348.419 355.701 349.335 354.912 350.24L354.57 349.942C352.997 351.746 351.376 353.507 349.707 355.222L350.032 355.538C349.195 356.399 348.346 357.248 347.486 358.085L347.169 357.76C345.454 359.428 343.694 361.05 341.889 362.623L342.187 362.965C341.282 363.754 340.366 364.53 339.439 365.295L339.151 364.944C337.305 366.466 335.418 367.937 333.489 369.357L333.758 369.722C332.792 370.434 331.815 371.133 330.829 371.818L330.57 371.445C328.606 372.809 326.604 374.12 324.564 375.377L324.802 375.763C323.78 376.392 322.75 377.008 321.71 377.609L321.483 377.217C319.415 378.413 317.311 379.554 315.173 380.639L315.378 381.043C314.308 381.586 313.229 382.114 312.142 382.628L311.949 382.218C309.79 383.238 307.599 384.201 305.378 385.104L305.548 385.525C304.437 385.976 303.318 386.413 302.192 386.835L302.033 386.41C299.798 387.248 297.534 388.025 295.242 388.741L295.378 389.174C294.235 389.531 293.085 389.873 291.929 390.2L291.806 389.763C289.511 390.41 287.191 390.997 284.846 391.52L284.945 391.963C283.775 392.224 282.599 392.47 281.418 392.699L281.331 392.254C278.993 392.708 276.632 393.099 274.251 393.427L274.313 393.876C273.126 394.039 271.933 394.187 270.736 394.318L270.687 393.867C268.32 394.126 265.934 394.321 263.53 394.452L263.555 394.905C262.362 394.97 261.164 395.019 259.963 395.051L259.95 394.598C258.755 394.63 257.555 394.647 256.352 394.647C255.148 394.647 253.948 394.63 252.753 394.598L252.74 395.051C251.539 395.019 250.341 394.97 249.148 394.905L249.173 394.452C246.77 394.321 244.383 394.126 242.016 393.867L241.967 394.318C240.77 394.187 239.577 394.039 238.39 393.876L238.452 393.427C236.071 393.099 233.71 392.708 231.372 392.254L231.285 392.699C230.104 392.47 228.928 392.224 227.758 391.963L227.857 391.52C225.513 390.997 223.192 390.41 220.897 389.763L220.774 390.2C219.618 389.873 218.468 389.531 217.326 389.174L217.461 388.741C215.169 388.025 212.905 387.248 210.67 386.41L210.511 386.835C209.385 386.413 208.266 385.976 207.155 385.525L207.326 385.104C205.104 384.201 202.913 383.238 200.755 382.218L200.561 382.628C199.474 382.114 198.395 381.586 197.325 381.043L197.53 380.639C195.392 379.555 193.288 378.413 191.22 377.217L190.993 377.609C189.953 377.008 188.923 376.392 187.901 375.763L188.139 375.377C186.099 374.12 184.097 372.809 182.133 371.445L181.874 371.818C180.888 371.133 179.911 370.434 178.945 369.722L179.214 369.357C177.285 367.937 175.398 366.466 173.552 364.944L173.264 365.295C172.337 364.53 171.421 363.754 170.516 362.965L170.814 362.623C169.01 361.05 167.249 359.428 165.534 357.76L165.218 358.085C164.357 357.248 163.508 356.399 162.671 355.538L162.996 355.222C161.327 353.507 159.706 351.746 158.133 349.942L157.791 350.24C157.002 349.335 156.225 348.419 155.461 347.492L155.811 347.203C154.29 345.358 152.818 343.47 151.399 341.542L151.033 341.811C150.322 340.844 149.623 339.868 148.938 338.881L149.311 338.622C147.947 336.659 146.635 334.656 145.379 332.616L144.992 332.854C144.363 331.833 143.748 330.802 143.146 329.763L143.539 329.535C142.342 327.467 141.201 325.363 140.117 323.226L139.712 323.431C139.17 322.361 138.641 321.282 138.128 320.195L138.538 320.001C137.517 317.843 136.555 315.652 135.651 313.43L135.231 313.601C134.779 312.49 134.342 311.371 133.92 310.245L134.345 310.086C133.508 307.851 132.73 305.586 132.014 303.295L131.581 303.43C131.224 302.287 130.882 301.138 130.556 299.982L130.993 299.858C130.345 297.564 129.759 295.243 129.235 292.899L128.793 292.998C128.531 291.828 128.286 290.652 128.057 289.47L128.502 289.384C128.048 287.046 127.656 284.685 127.329 282.304L126.879 282.366C126.716 281.178 126.569 279.986 126.438 278.789L126.889 278.739C126.63 276.372 126.434 273.986 126.304 271.583L125.85 271.607C125.786 270.414 125.737 269.217 125.704 268.015L126.158 268.003C126.125 266.807 126.109 265.608 126.109 264.404C126.109 263.201 126.125 262.001 126.158 260.805L125.704 260.793C125.737 259.592 125.786 258.394 125.85 257.201L126.304 257.226C126.434 254.822 126.63 252.436 126.889 250.069L126.438 250.02C126.569 248.822 126.716 247.63 126.879 246.443L127.329 246.504C127.656 244.123 128.048 241.763 128.502 239.424L128.057 239.338C128.286 238.156 128.531 236.981 128.793 235.811L129.235 235.91C129.759 233.565 130.345 231.245 130.993 228.95L130.556 228.827C130.882 227.671 131.224 226.521 131.581 225.378L132.014 225.514C132.73 223.222 133.508 220.958 134.345 218.723L133.92 218.564C134.342 217.437 134.779 216.318 135.231 215.207L135.651 215.378C136.555 213.157 137.517 210.966 138.538 208.807L138.127 208.613C138.641 207.526 139.17 206.448 139.712 205.378L140.117 205.583C141.201 203.445 142.342 201.341 143.539 199.273L143.146 199.046C143.748 198.006 144.363 196.975 144.992 195.954L145.379 196.192C146.635 194.152 147.947 192.149 149.311 190.186L148.938 189.927C149.623 188.94 150.322 187.964 151.033 186.997L151.399 187.266C152.818 185.338 154.29 183.45 155.811 181.605L155.461 181.316C156.225 180.39 157.002 179.474 157.791 178.568L158.133 178.867C159.706 177.062 161.327 175.302 162.996 173.587L162.671 173.27C163.508 172.41 164.357 171.561 165.218 170.723L165.534 171.049C167.249 169.38 169.01 167.758 170.814 166.186L170.516 165.843C171.421 165.055 172.337 164.278 173.264 163.514L173.552 163.864C175.398 162.343 177.285 160.871 179.214 159.451L178.945 159.086C179.911 158.374 180.888 157.676 181.874 156.991L182.133 157.363C184.097 155.999 186.099 154.688 188.139 153.431L187.901 153.045C188.923 152.416 189.953 151.8 190.993 151.199L191.22 151.592C193.288 150.395 195.392 149.254 197.53 148.17L197.325 147.765C198.395 147.222 199.474 146.694 200.561 146.18L200.755 146.59C202.913 145.57 205.104 144.607 207.326 143.704L207.155 143.284C208.266 142.832 209.385 142.395 210.511 141.973L210.67 142.398C212.905 141.561 215.169 140.783 217.461 140.067L217.326 139.634C218.468 139.277 219.618 138.935 220.774 138.609L220.897 139.046C223.192 138.398 225.513 137.811 227.857 137.288L227.758 136.845C228.928 136.584 230.104 136.339 231.285 136.109L231.372 136.555C233.71 136.101 236.071 135.709 238.452 135.382L238.39 134.932C239.577 134.769 240.77 134.622 241.967 134.491L242.016 134.942C244.383 134.683 246.77 134.487 249.173 134.356L249.148 133.903C250.341 133.838 251.539 133.79 252.74 133.757L252.753 134.211C253.948 134.178 255.148 134.162 256.352 134.162C257.555 134.162 258.755 134.178 259.95 134.211L259.963 133.757C261.164 133.79 262.362 133.838 263.555 133.903L263.53 134.356C265.934 134.487 268.32 134.683 270.687 134.942L270.736 134.491C271.933 134.622 273.126 134.769 274.313 134.932L274.251 135.382C276.632 135.709 278.993 136.101 281.331 136.555L281.418 136.109C282.599 136.339 283.775 136.584 284.945 136.845L284.846 137.288C287.191 137.811 289.511 138.398 291.806 139.046L291.929 138.609C293.085 138.935 294.235 139.277 295.377 139.634L295.242 140.067C297.534 140.783 299.798 141.561 302.033 142.398L302.192 141.973C303.318 142.395 304.437 142.832 305.548 143.284L305.378 143.704C307.599 144.607 309.79 145.57 311.949 146.59L312.142 146.18C313.229 146.694 314.308 147.222 315.378 147.765L315.173 148.17C317.311 149.254 319.415 150.395 321.483 151.592L321.71 151.199C322.75 151.8 323.78 152.416 324.802 153.045L324.564 153.431C326.604 154.688 328.606 155.999 330.57 157.363L330.829 156.991C331.815 157.676 332.792 158.374 333.758 159.086L333.489 159.451C335.418 160.871 337.305 162.343 339.151 163.864L339.439 163.514C340.366 164.278 341.282 165.055 342.187 165.843L341.889 166.186C343.694 167.758 345.454 169.38 347.169 171.049L347.486 170.723C348.346 171.561 349.195 172.41 350.032 173.27L349.707 173.587C351.376 175.301 352.997 177.062 354.57 178.867L354.912 178.568C355.701 179.474 356.478 180.39 357.242 181.316L356.892 181.605C358.413 183.45 359.885 185.338 361.304 187.266L361.67 186.997C362.381 187.964 363.08 188.94 363.765 189.927L363.393 190.186C364.756 192.149 366.068 194.152 367.324 196.192L367.711 195.954C368.34 196.975 368.955 198.006 369.557 199.046L369.164 199.273C370.361 201.341 371.502 203.445 372.586 205.583L372.991 205.377C373.533 206.448 374.062 207.526 374.576 208.613L374.165 208.807C375.186 210.966 376.148 213.157 377.052 215.378L377.472 215.207C377.924 216.318 378.361 217.437 378.783 218.563L378.358 218.723C379.195 220.958 379.973 223.222 380.689 225.514L381.122 225.378C381.479 226.521 381.821 227.671 382.147 228.827L381.71 228.95C382.358 231.245 382.944 233.565 383.468 235.91L383.91 235.811C384.172 236.981 384.417 238.156 384.647 239.338L384.201 239.424C384.655 241.763 385.047 244.123 385.374 246.504L385.824 246.443C385.987 247.63 386.134 248.822 386.265 250.02L385.814 250.069C386.073 252.436 386.269 254.822 386.4 257.226L386.853 257.201Z" stroke="white" stroke-width="0.907613" stroke-dasharray="7.26 3.63" shape-rendering="crispEdges"/>
</g>
<path d="M251.361 208.584C262.89 208.584 272.236 199.238 272.236 187.709C272.236 176.18 262.89 166.834 251.361 166.834C239.832 166.834 230.486 176.18 230.486 187.709C230.486 199.238 239.832 208.584 251.361 208.584Z" fill="#FCF2FF" stroke="#E5A2F5" stroke-width="0.907613"/>
<mask id="mask1_14176_1880" style="mask-type:alpha" maskUnits="userSpaceOnUse" x="230" y="167" width="42" height="42">
<ellipse cx="251.361" cy="187.709" rx="20.4213" ry="20.4213" fill="#D9D9D9"/>
</mask>
<g mask="url(#mask1_14176_1880)">
<path d="M242.851 185.378L233.262 195.351C232.936 195.689 232.755 196.14 232.755 196.609V207.223C232.755 208.226 233.568 209.038 234.57 209.038H269.967C270.97 209.038 271.782 208.226 271.782 207.223V195.152C271.782 194.482 271.413 193.866 270.821 193.55L259.355 187.435C258.65 187.059 257.782 187.188 257.217 187.753L253.972 190.998C253.276 191.694 252.154 191.709 251.44 191.032L245.408 185.318C244.684 184.632 243.542 184.659 242.851 185.378Z" fill="url(#paint6_linear_14176_1880)"/>
<ellipse cx="254.991" cy="182.264" rx="3.17665" ry="3.17664" fill="url(#paint7_linear_14176_1880)"/>
</g>
<path d="M338.491 309.331C350.02 309.331 359.366 299.984 359.366 288.455C359.366 276.926 350.02 267.58 338.491 267.58C326.962 267.58 317.616 276.926 317.616 288.455C317.616 299.984 326.962 309.331 338.491 309.331Z" fill="#FCF2FF" stroke="#E5A2F5" stroke-width="0.907613"/>
<mask id="mask2_14176_1880" style="mask-type:alpha" maskUnits="userSpaceOnUse" x="318" y="268" width="41" height="41">
<ellipse cx="338.491" cy="288.455" rx="20.4213" ry="20.4213" fill="#D9D9D9"/>
</mask>
<g mask="url(#mask2_14176_1880)">
<rect x="326.238" y="278.927" width="4.53806" height="18.1522" rx="0.907613" fill="url(#paint8_linear_14176_1880)"/>
<rect x="332.592" y="283.465" width="4.53806" height="13.6142" rx="0.907613" fill="url(#paint9_linear_14176_1880)"/>
<rect x="338.944" y="287.095" width="4.53806" height="9.98374" rx="0.907613" fill="url(#paint10_linear_14176_1880)"/>
<rect x="345.299" y="278.927" width="4.53806" height="18.1522" rx="0.907613" fill="url(#paint11_linear_14176_1880)"/>
</g>
<path d="M333.045 257.598C344.574 257.598 353.92 248.252 353.92 236.723C353.92 225.194 344.574 215.848 333.045 215.848C321.516 215.848 312.17 225.194 312.17 236.723C312.17 248.252 321.516 257.598 333.045 257.598Z" fill="#FCF2FF" stroke="#E5A2F5" stroke-width="0.907613"/>
<mask id="mask3_14176_1880" style="mask-type:alpha" maskUnits="userSpaceOnUse" x="312" y="216" width="42" height="42">
<ellipse cx="333.045" cy="236.723" rx="20.4213" ry="20.4213" fill="#D9D9D9"/>
</mask>
<g mask="url(#mask3_14176_1880)">
<path d="M321.583 236.802L333.604 224.405C334.299 223.688 335.443 223.667 336.164 224.358L344.453 232.302C345.172 232.991 345.202 234.132 344.519 234.857L332.513 247.614C331.811 248.36 330.631 248.377 329.907 247.653L321.603 239.349C320.902 238.648 320.893 237.514 321.583 236.802Z" fill="url(#paint12_linear_14176_1880)"/>
<path opacity="0.5" d="M334.406 229.008V238.084H325.33" stroke="white" stroke-width="2.72284" stroke-linejoin="round"/>
</g>
<path d="M304.001 218.569C315.53 218.569 324.876 209.223 324.876 197.694C324.876 186.165 315.53 176.819 304.001 176.819C292.472 176.819 283.126 186.165 283.126 197.694C283.126 209.223 292.472 218.569 304.001 218.569Z" fill="#FCF2FF" stroke="#E5A2F5" stroke-width="0.907613"/>
<mask id="mask4_14176_1880" style="mask-type:alpha" maskUnits="userSpaceOnUse" x="283" y="177" width="42" height="42">
<ellipse cx="304.001" cy="197.694" rx="20.4213" ry="20.4213" fill="#D9D9D9"/>
</mask>
<g mask="url(#mask4_14176_1880)">
<path d="M299.486 204.626H295.897L301.366 188.784H305.682L311.144 204.626H307.554L303.586 192.404H303.462L299.486 204.626ZM299.262 198.399H307.74L307.74 201.014H299.262L299.262 198.399Z" fill="url(#paint13_linear_14176_1880)"/>
</g>
<path d="M309.447 353.804C320.976 353.804 330.322 344.458 330.322 332.929C330.322 321.4 320.976 312.054 309.447 312.054C297.918 312.054 288.572 321.4 288.572 332.929C288.572 344.458 297.918 353.804 309.447 353.804Z" fill="#FCF2FF" stroke="#E5A2F5" stroke-width="0.907613"/>
<mask id="mask5_14176_1880" style="mask-type:alpha" maskUnits="userSpaceOnUse" x="289" y="312" width="41" height="42">
<ellipse cx="309.447" cy="332.929" rx="20.4213" ry="20.4213" fill="#D9D9D9"/>
</mask>
<g mask="url(#mask5_14176_1880)">
<path d="M306.996 324.307H302.962C302.061 324.307 301.296 324.968 301.166 325.86L299.313 338.566C299.153 339.662 300.002 340.644 301.109 340.644H316.915C317.783 340.644 318.53 340.028 318.696 339.176L320.711 328.852C320.93 327.731 320.071 326.689 318.929 326.689H309.062C308.427 326.689 307.939 326.127 308.029 325.498C308.119 324.869 307.631 324.307 306.996 324.307Z" fill="url(#paint14_linear_14176_1880)"/>
<g clip-path="url(#clip0_14176_1880)">
<rect x="306.158" y="328.731" width="8.17649" height="8.16851" rx="1.81523" fill="url(#paint15_linear_14176_1880)"/>
<path d="M306.168 332.82C306.168 333.902 306.598 334.94 307.363 335.705C308.128 336.47 309.165 336.899 310.247 336.899C311.329 336.899 312.366 336.47 313.131 335.705C313.896 334.94 314.326 333.902 314.326 332.82C314.326 331.738 313.896 330.701 313.131 329.936C312.366 329.171 311.329 328.741 310.247 328.741C309.165 328.741 308.128 329.171 307.363 329.936C306.598 330.701 306.168 331.738 306.168 332.82Z" fill="white"/>
<path d="M309.541 334.548L309.476 334.478C309.386 334.382 309.392 334.23 309.488 334.14L312.193 331.636C312.289 331.546 312.442 331.552 312.531 331.648L312.596 331.719C312.685 331.815 312.68 331.967 312.583 332.056L309.879 334.561C309.782 334.65 309.631 334.645 309.541 334.548Z" fill="#8F38C5"/>
<path d="M309.87 334.447L309.795 334.507C309.692 334.589 309.541 334.572 309.459 334.47L308.22 332.918C308.138 332.815 308.155 332.664 308.257 332.582L308.332 332.522C308.435 332.44 308.587 332.456 308.669 332.559L309.907 334.111C309.99 334.214 309.973 334.365 309.87 334.447Z" fill="#8F38C5"/>
</g>
</g>
<path d="M217.715 375.476H79.0493C74.9957 375.476 71.585 378.512 71.1159 382.538L62.3341 457.915C61.7813 462.661 65.4901 466.827 70.2674 466.827H208.933C212.987 466.827 216.398 463.79 216.867 459.764L225.649 384.387C226.201 379.642 222.493 375.476 217.715 375.476Z" fill="url(#paint16_linear_14176_1880)"/>
<path d="M215.72 372.479H77.0541C73.0006 372.479 69.5899 375.516 69.1208 379.542L60.339 454.919C59.7861 459.665 63.495 463.831 68.2723 463.831H206.938C210.992 463.831 214.403 460.794 214.872 456.768L223.653 381.391C224.206 376.645 220.497 372.479 215.72 372.479Z" fill="url(#paint17_linear_14176_1880)"/>
<path d="M198.746 359.501H60.0805C56.027 359.501 52.6163 362.537 52.1472 366.564L43.3654 441.941C42.8125 446.686 46.5213 450.852 51.2987 450.852H189.965C194.018 450.852 197.429 447.816 197.898 443.789L206.68 368.412C207.233 363.667 203.524 359.501 198.746 359.501Z" fill="url(#paint18_linear_14176_1880)"/>
<path d="M196.75 356.506H58.0844C54.0309 356.506 50.6202 359.542 50.1511 363.569L41.3693 438.946C40.8164 443.691 44.5252 447.857 49.3026 447.857H187.969C192.022 447.857 195.433 444.821 195.902 440.794L204.684 365.417C205.237 360.672 201.528 356.506 196.75 356.506Z" fill="url(#paint19_linear_14176_1880)"/>
<path d="M196.833 356.506H58.15C54.0684 356.506 50.6435 359.583 50.2085 363.642L49.6357 368.986H204.384L204.774 365.344C205.28 360.623 201.581 356.506 196.833 356.506Z" fill="url(#paint20_linear_14176_1880)"/>
<path d="M126.067 360.5H71.185C69.9095 360.5 68.8392 361.462 68.7033 362.73C68.5451 364.205 69.7012 365.492 71.185 365.492H126.067C127.342 365.492 128.413 364.53 128.549 363.262C128.707 361.787 127.551 360.5 126.067 360.5Z" fill="url(#paint21_linear_14176_1880)"/>
<path d="M95.241 377.471H75.2735L72.9375 396.939H92.905L95.241 377.471Z" fill="url(#paint22_linear_14176_1880)"/>
<path d="M177.108 403.43H152.149L148.814 436.875H173.774L177.108 403.43Z" fill="url(#paint23_linear_14176_1880)"/>
<path d="M133.055 402.431H64.1957C62.9202 402.431 61.8499 403.392 61.714 404.661C61.5559 406.136 62.712 407.423 64.1957 407.423H133.055C134.33 407.423 135.401 406.461 135.537 405.193C135.695 403.717 134.539 402.431 133.055 402.431Z" fill="url(#paint24_linear_14176_1880)"/>
<path d="M131.058 422.397H62.1987C60.9232 422.397 59.8529 423.359 59.7169 424.627C59.5588 426.103 60.7149 427.389 62.1987 427.389H131.058C132.333 427.389 133.404 426.428 133.54 425.159C133.698 423.684 132.542 422.397 131.058 422.397Z" fill="url(#paint25_linear_14176_1880)"/>
<path d="M114.086 432.382H61.2006C59.9251 432.382 58.8548 433.344 58.7189 434.612C58.5608 436.087 59.7169 437.374 61.2006 437.374H114.086C115.361 437.374 116.432 436.412 116.568 435.144C116.726 433.668 115.57 432.382 114.086 432.382Z" fill="url(#paint26_linear_14176_1880)"/>
<path d="M116.082 412.414H63.1967C61.9212 412.414 60.8509 413.376 60.715 414.644C60.5569 416.119 61.713 417.406 63.1967 417.406H116.082C117.357 417.406 118.428 416.444 118.564 415.176C118.722 413.701 117.566 412.414 116.082 412.414Z" fill="url(#paint27_linear_14176_1880)"/>
<path d="M142.628 180.904H70.1088C66.4101 180.904 63.3024 183.685 62.8926 187.361L51.2058 292.19C50.7262 296.492 54.0934 300.255 58.422 300.255H130.941C134.64 300.255 137.747 297.475 138.157 293.799L149.844 188.97C150.324 184.668 146.957 180.904 142.628 180.904Z" fill="url(#paint28_linear_14176_1880)"/>
<path d="M140.812 178.182H68.2934C64.5946 178.182 61.487 180.962 61.0772 184.638L49.3904 289.467C48.9108 293.769 52.2779 297.533 56.6066 297.533H129.126C132.824 297.533 135.932 294.752 136.342 291.076L148.029 186.247C148.508 181.945 145.141 178.182 140.812 178.182Z" fill="url(#paint29_linear_14176_1880)"/>
<path d="M121.808 193.611H82.8597C79.1424 193.611 76.0255 196.419 75.6383 200.116L72.9294 225.983C72.4806 230.269 75.8416 234 80.1508 234H119.099C122.816 234 125.933 231.193 126.32 227.495L129.029 201.628C129.478 197.343 126.117 193.611 121.808 193.611Z" fill="url(#paint30_linear_14176_1880)"/>
<path d="M120.491 245.345H72.4174C71.0234 245.345 69.8546 246.398 69.7094 247.784C69.5411 249.391 70.8014 250.79 72.4174 250.79H120.491C121.885 250.79 123.054 249.738 123.199 248.351C123.367 246.744 122.107 245.345 120.491 245.345Z" fill="url(#paint31_linear_14176_1880)"/>
<path d="M100.524 257.145H72.4174C71.0234 257.145 69.8546 258.197 69.7094 259.584C69.5411 261.191 70.8014 262.59 72.4174 262.59H100.524C101.918 262.59 103.086 261.537 103.232 260.151C103.4 258.544 102.14 257.145 100.524 257.145Z" fill="url(#paint32_linear_14176_1880)"/>
<path d="M104.154 268.943H72.4174C71.0234 268.943 69.8546 269.996 69.7094 271.383C69.5411 272.99 70.8014 274.389 72.4174 274.389H104.154C105.548 274.389 106.717 273.336 106.862 271.95C107.03 270.343 105.77 268.943 104.154 268.943Z" fill="url(#paint33_linear_14176_1880)"/>
<mask id="mask6_14176_1880" style="mask-type:alpha" maskUnits="userSpaceOnUse" x="72" y="193" width="58" height="41">
<path d="M121.808 193.611H82.8597C79.1424 193.611 76.0255 196.419 75.6383 200.116L72.9294 225.983C72.4806 230.269 75.8416 234 80.1508 234H119.099C122.816 234 125.933 231.193 126.32 227.495L129.029 201.628C129.478 197.343 126.117 193.611 121.808 193.611Z" fill="#D9D9D9"/>
</mask>
<g mask="url(#mask6_14176_1880)">
<path d="M91.6038 205.41L72.5439 224.47V235.361H125.185V231.277L106.579 211.31L101.134 214.94L91.6038 205.41Z" fill="url(#paint34_linear_14176_1880)"/>
<ellipse cx="117.47" cy="205.41" rx="4.53806" ry="4.53806" fill="url(#paint35_linear_14176_1880)"/>
</g>
</g>
<defs>
<filter id="filter0_f_14176_1880" x="-53" y="44" width="549" height="549" filterUnits="userSpaceOnUse" color-interpolation-filters="sRGB">
<feFlood flood-opacity="0" result="BackgroundImageFix"/>
<feBlend mode="normal" in="SourceGraphic" in2="BackgroundImageFix" result="shape"/>
<feGaussianBlur stdDeviation="40" result="effect1_foregroundBlur_14176_1880"/>
</filter>
<filter id="filter1_d_14176_1880" x="232.754" y="242.622" width="47.1956" height="47.1956" filterUnits="userSpaceOnUse" color-interpolation-filters="sRGB">
<feFlood flood-opacity="0" result="BackgroundImageFix"/>
<feColorMatrix in="SourceAlpha" type="matrix" values="0 0 0 0 0 0 0 0 0 0 0 0 0 0 0 0 0 0 127 0" result="hardAlpha"/>
<feOffset dy="1.81523"/>
<feGaussianBlur stdDeviation="3.63045"/>
<feComposite in2="hardAlpha" operator="out"/>
<feColorMatrix type="matrix" values="0 0 0 0 0.988235 0 0 0 0 0.576471 0 0 0 0 0.913725 0 0 0 0.4 0"/>
<feBlend mode="normal" in2="BackgroundImageFix" result="effect1_dropShadow_14176_1880"/>
<feBlend mode="normal" in="SourceGraphic" in2="effect1_dropShadow_14176_1880" result="shape"/>
</filter>
<filter id="filter2_d_14176_1880" x="216.417" y="226.285" width="79.8695" height="79.8695" filterUnits="userSpaceOnUse" color-interpolation-filters="sRGB">
<feFlood flood-opacity="0" result="BackgroundImageFix"/>
<feColorMatrix in="SourceAlpha" type="matrix" values="0 0 0 0 0 0 0 0 0 0 0 0 0 0 0 0 0 0 127 0" result="hardAlpha"/>
<feOffset dy="1.81523"/>
<feGaussianBlur stdDeviation="3.63045"/>
<feComposite in2="hardAlpha" operator="out"/>
<feColorMatrix type="matrix" values="0 0 0 0 0.988235 0 0 0 0 0.576471 0 0 0 0 0.913725 0 0 0 0.4 0"/>
<feBlend mode="normal" in2="BackgroundImageFix" result="effect1_dropShadow_14176_1880"/>
<feBlend mode="normal" in="SourceGraphic" in2="effect1_dropShadow_14176_1880" result="shape"/>
</filter>
<filter id="filter3_d_14176_1880" x="186.466" y="196.334" width="139.773" height="139.772" filterUnits="userSpaceOnUse" color-interpolation-filters="sRGB">
<feFlood flood-opacity="0" result="BackgroundImageFix"/>
<feColorMatrix in="SourceAlpha" type="matrix" values="0 0 0 0 0 0 0 0 0 0 0 0 0 0 0 0 0 0 127 0" result="hardAlpha"/>
<feOffset dy="1.81523"/>
<feGaussianBlur stdDeviation="3.63045"/>
<feComposite in2="hardAlpha" operator="out"/>
<feColorMatrix type="matrix" values="0 0 0 0 0.988235 0 0 0 0 0.576471 0 0 0 0 0.913725 0 0 0 0.4 0"/>
<feBlend mode="normal" in2="BackgroundImageFix" result="effect1_dropShadow_14176_1880"/>
<feBlend mode="normal" in="SourceGraphic" in2="effect1_dropShadow_14176_1880" result="shape"/>
</filter>
<filter id="filter4_d_14176_1880" x="162.867" y="172.735" width="186.968" height="186.968" filterUnits="userSpaceOnUse" color-interpolation-filters="sRGB">
<feFlood flood-opacity="0" result="BackgroundImageFix"/>
<feColorMatrix in="SourceAlpha" type="matrix" values="0 0 0 0 0 0 0 0 0 0 0 0 0 0 0 0 0 0 127 0" result="hardAlpha"/>
<feOffset dy="1.81523"/>
<feGaussianBlur stdDeviation="3.63045"/>
<feComposite in2="hardAlpha" operator="out"/>
<feColorMatrix type="matrix" values="0 0 0 0 0.988235 0 0 0 0 0.576471 0 0 0 0 0.913725 0 0 0 0.4 0"/>
<feBlend mode="normal" in2="BackgroundImageFix" result="effect1_dropShadow_14176_1880"/>
<feBlend mode="normal" in="SourceGraphic" in2="effect1_dropShadow_14176_1880" result="shape"/>
</filter>
<filter id="filter5_d_14176_1880" x="118.394" y="128.262" width="275.914" height="275.914" filterUnits="userSpaceOnUse" color-interpolation-filters="sRGB">
<feFlood flood-opacity="0" result="BackgroundImageFix"/>
<feColorMatrix in="SourceAlpha" type="matrix" values="0 0 0 0 0 0 0 0 0 0 0 0 0 0 0 0 0 0 127 0" result="hardAlpha"/>
<feOffset dy="1.81523"/>
<feGaussianBlur stdDeviation="3.63045"/>
<feComposite in2="hardAlpha" operator="out"/>
<feColorMatrix type="matrix" values="0 0 0 0 0.988235 0 0 0 0 0.576471 0 0 0 0 0.913725 0 0 0 0.4 0"/>
<feBlend mode="normal" in2="BackgroundImageFix" result="effect1_dropShadow_14176_1880"/>
<feBlend mode="normal" in="SourceGraphic" in2="effect1_dropShadow_14176_1880" result="shape"/>
</filter>
<radialGradient id="paint0_radial_14176_1880" cx="0" cy="0" r="1" gradientUnits="userSpaceOnUse" gradientTransform="translate(222 429.5) rotate(-108.269) scale(545.495 384.8)">
<stop stop-color="#370E6E"/>
<stop offset="0.670948" stop-color="#905EE0"/>
<stop offset="1" stop-color="#B36CBE"/>
</radialGradient>
<linearGradient id="paint1_linear_14176_1880" x1="-224.317" y1="474.185" x2="593.031" y2="180.147" gradientUnits="userSpaceOnUse">
<stop stop-color="#DB71FB" stop-opacity="0.1"/>
<stop offset="0.535" stop-color="#DB71FB"/>
<stop offset="1" stop-color="#DB71FB" stop-opacity="0.1"/>
</linearGradient>
<linearGradient id="paint2_linear_14176_1880" x1="-179.569" y1="217.207" x2="644.919" y2="436.462" gradientUnits="userSpaceOnUse">
<stop stop-color="#B671FB" stop-opacity="0.1"/>
<stop offset="0.535" stop-color="#B671FB"/>
<stop offset="1" stop-color="#B671FB" stop-opacity="0.1"/>
</linearGradient>
<linearGradient id="paint3_linear_14176_1880" x1="77.5943" y1="349.785" x2="380.765" y2="403.201" gradientUnits="userSpaceOnUse">
<stop stop-color="#8B33BA"/>
<stop offset="1" stop-color="#761AB1"/>
</linearGradient>
<linearGradient id="paint4_linear_14176_1880" x1="66.6445" y1="344.274" x2="374.325" y2="344.274" gradientUnits="userSpaceOnUse">
<stop stop-color="#D392EF"/>
<stop offset="1" stop-color="#BC68E9"/>
</linearGradient>
<linearGradient id="paint5_linear_14176_1880" x1="294.538" y1="457.356" x2="374.408" y2="457.356" gradientUnits="userSpaceOnUse">
<stop stop-color="#AB4BE2"/>
<stop offset="1" stop-color="#8833BE"/>
</linearGradient>
<linearGradient id="paint6_linear_14176_1880" x1="232.755" y1="206.019" x2="271.782" y2="206.019" gradientUnits="userSpaceOnUse">
<stop stop-color="#E4BBEE"/>
<stop offset="1" stop-color="#E4BAEE"/>
</linearGradient>
<linearGradient id="paint7_linear_14176_1880" x1="251.814" y1="184.672" x2="258.168" y2="184.672" gradientUnits="userSpaceOnUse">
<stop stop-color="#E4BBEE"/>
<stop offset="1" stop-color="#E4BAEE"/>
</linearGradient>
<linearGradient id="paint8_linear_14176_1880" x1="326.238" y1="288.003" x2="330.776" y2="288.003" gradientUnits="userSpaceOnUse">
<stop stop-color="#C47CEE"/>
<stop offset="1" stop-color="#B261E5"/>
</linearGradient>
<linearGradient id="paint9_linear_14176_1880" x1="332.592" y1="290.272" x2="337.13" y2="290.272" gradientUnits="userSpaceOnUse">
<stop stop-color="#C47CEE"/>
<stop offset="1" stop-color="#B261E5"/>
</linearGradient>
<linearGradient id="paint10_linear_14176_1880" x1="338.944" y1="292.087" x2="343.482" y2="292.087" gradientUnits="userSpaceOnUse">
<stop stop-color="#C47CEE"/>
<stop offset="1" stop-color="#B261E5"/>
</linearGradient>
<linearGradient id="paint11_linear_14176_1880" x1="345.299" y1="288.003" x2="349.837" y2="288.003" gradientUnits="userSpaceOnUse">
<stop stop-color="#C47CEE"/>
<stop offset="1" stop-color="#B261E5"/>
</linearGradient>
<linearGradient id="paint12_linear_14176_1880" x1="320.339" y1="245.848" x2="345.752" y2="245.848" gradientUnits="userSpaceOnUse">
<stop stop-color="#E4BBEE"/>
<stop offset="1" stop-color="#E4BAEE"/>
</linearGradient>
<linearGradient id="paint13_linear_14176_1880" x1="295.379" y1="196.626" x2="312.379" y2="196.626" gradientUnits="userSpaceOnUse">
<stop stop-color="#C47CEE"/>
<stop offset="1" stop-color="#B261E5"/>
</linearGradient>
<linearGradient id="paint14_linear_14176_1880" x1="299.01" y1="338.668" x2="321.133" y2="338.668" gradientUnits="userSpaceOnUse">
<stop stop-color="#E4BBEE"/>
<stop offset="1" stop-color="#E4BAEE"/>
</linearGradient>
<linearGradient id="paint15_linear_14176_1880" x1="306.158" y1="335.912" x2="314.335" y2="335.912" gradientUnits="userSpaceOnUse">
<stop stop-color="#F7D6FF"/>
<stop offset="1" stop-color="#F4C9FF"/>
</linearGradient>
<linearGradient id="paint16_linear_14176_1880" x1="61.2959" y1="421.151" x2="226.687" y2="421.151" gradientUnits="userSpaceOnUse">
<stop stop-color="#C567E7"/>
<stop offset="1" stop-color="#C74BE2"/>
</linearGradient>
<linearGradient id="paint17_linear_14176_1880" x1="59.3008" y1="418.155" x2="224.692" y2="418.155" gradientUnits="userSpaceOnUse">
<stop stop-color="#E19FF9"/>
<stop offset="1" stop-color="#E5A3F4"/>
</linearGradient>
<linearGradient id="paint18_linear_14176_1880" x1="42.3271" y1="405.177" x2="207.718" y2="405.177" gradientUnits="userSpaceOnUse">
<stop stop-color="#EBC7F7"/>
<stop offset="1" stop-color="#F4BBFF"/>
</linearGradient>
<linearGradient id="paint19_linear_14176_1880" x1="40.3311" y1="402.181" x2="205.722" y2="402.181" gradientUnits="userSpaceOnUse">
<stop stop-color="#FCF4FF"/>
<stop offset="1" stop-color="#FBE9FF"/>
</linearGradient>
<linearGradient id="paint20_linear_14176_1880" x1="49.6357" y1="362.746" x2="205.721" y2="362.746" gradientUnits="userSpaceOnUse">
<stop stop-color="#AB4BE2"/>
<stop offset="1" stop-color="#8833BE"/>
</linearGradient>
<linearGradient id="paint21_linear_14176_1880" x1="68.4072" y1="362.996" x2="128.845" y2="362.996" gradientUnits="userSpaceOnUse">
<stop stop-color="#FCF4FF"/>
<stop offset="1" stop-color="#FBE9FF"/>
</linearGradient>
<linearGradient id="paint22_linear_14176_1880" x1="72.9375" y1="394.584" x2="95.241" y2="394.584" gradientUnits="userSpaceOnUse">
<stop stop-color="#F7D6FF"/>
<stop offset="1" stop-color="#F4C9FF"/>
</linearGradient>
<linearGradient id="paint23_linear_14176_1880" x1="148.814" y1="432.83" x2="177.108" y2="432.83" gradientUnits="userSpaceOnUse">
<stop stop-color="#F7D6FF"/>
<stop offset="1" stop-color="#F4C9FF"/>
</linearGradient>
<linearGradient id="paint24_linear_14176_1880" x1="61.418" y1="406.819" x2="135.833" y2="406.819" gradientUnits="userSpaceOnUse">
<stop stop-color="#F7D6FF"/>
<stop offset="1" stop-color="#F4C9FF"/>
</linearGradient>
<linearGradient id="paint25_linear_14176_1880" x1="59.4209" y1="426.786" x2="133.836" y2="426.786" gradientUnits="userSpaceOnUse">
<stop stop-color="#F7D6FF"/>
<stop offset="1" stop-color="#F4C9FF"/>
</linearGradient>
<linearGradient id="paint26_linear_14176_1880" x1="58.4229" y1="436.77" x2="116.864" y2="436.77" gradientUnits="userSpaceOnUse">
<stop stop-color="#F7D6FF"/>
<stop offset="1" stop-color="#F4C9FF"/>
</linearGradient>
<linearGradient id="paint27_linear_14176_1880" x1="60.4189" y1="416.802" x2="118.86" y2="416.802" gradientUnits="userSpaceOnUse">
<stop stop-color="#F7D6FF"/>
<stop offset="1" stop-color="#F4C9FF"/>
</linearGradient>
<linearGradient id="paint28_linear_14176_1880" x1="50.3066" y1="240.58" x2="150.743" y2="240.58" gradientUnits="userSpaceOnUse">
<stop stop-color="#EBC7F7"/>
<stop offset="1" stop-color="#F4BBFF"/>
</linearGradient>
<linearGradient id="paint29_linear_14176_1880" x1="48.4912" y1="237.857" x2="148.928" y2="237.857" gradientUnits="userSpaceOnUse">
<stop stop-color="#FCF4FF"/>
<stop offset="1" stop-color="#FBE9FF"/>
</linearGradient>
<linearGradient id="paint30_linear_14176_1880" x1="72.0898" y1="229.115" x2="129.869" y2="229.115" gradientUnits="userSpaceOnUse">
<stop stop-color="#F7D6FF"/>
<stop offset="1" stop-color="#F4C9FF"/>
</linearGradient>
<linearGradient id="paint31_linear_14176_1880" x1="69.3945" y1="250.132" x2="123.514" y2="250.132" gradientUnits="userSpaceOnUse">
<stop stop-color="#F7D6FF"/>
<stop offset="1" stop-color="#F4C9FF"/>
</linearGradient>
<linearGradient id="paint32_linear_14176_1880" x1="69.3945" y1="261.932" x2="103.546" y2="261.932" gradientUnits="userSpaceOnUse">
<stop stop-color="#F7D6FF"/>
<stop offset="1" stop-color="#F4C9FF"/>
</linearGradient>
<linearGradient id="paint33_linear_14176_1880" x1="69.3945" y1="273.73" x2="107.177" y2="273.73" gradientUnits="userSpaceOnUse">
<stop stop-color="#F7D6FF"/>
<stop offset="1" stop-color="#F4C9FF"/>
</linearGradient>
<linearGradient id="paint34_linear_14176_1880" x1="72.5439" y1="220.386" x2="125.185" y2="220.386" gradientUnits="userSpaceOnUse">
<stop stop-color="#AB4BE2"/>
<stop offset="1" stop-color="#8833BE"/>
</linearGradient>
<linearGradient id="paint35_linear_14176_1880" x1="112.932" y1="205.41" x2="122.008" y2="205.41" gradientUnits="userSpaceOnUse">
<stop stop-color="#AB4BE2"/>
<stop offset="1" stop-color="#8833BE"/>
</linearGradient>
<clipPath id="clip0_14176_1880">
<rect x="306.158" y="328.731" width="8.17649" height="8.16851" rx="1.81523" fill="white"/>
</clipPath>
</defs>
</svg>
